<svg width="300" height="260" viewBox="0 0 300 260" fill="none" xmlns="http://www.w3.org/2000/svg">
<g clip-path="url(#clip0_214_1053)">
<mask id="path-1-inside-1_214_1053" fill="white">
<path fill-rule="evenodd" clip-rule="evenodd" d="M103.357 168.915C106.053 167.714 108.125 160.426 108.125 150.018C108.125 138.607 104.152 125.384 102.563 123C100.973 125.384 97 138.607 97 150.018C97 160.427 99.0723 167.715 101.768 168.915V173.857H103.357V168.915Z"/>
</mask>
<path d="M103.357 168.915L102.747 167.544L101.857 167.94V168.915H103.357ZM102.563 123L103.811 122.168L102.563 120.296L101.314 122.168L102.563 123ZM101.768 168.915H103.268V167.94L102.378 167.544L101.768 168.915ZM101.768 173.857H100.268V175.357H101.768V173.857ZM103.357 173.857V175.357H104.857V173.857H103.357ZM106.625 150.018C106.625 155.135 106.114 159.425 105.301 162.54C104.893 164.1 104.422 165.317 103.934 166.181C103.428 167.077 102.995 167.434 102.747 167.544L103.967 170.285C105.068 169.795 105.905 168.791 106.545 167.657C107.203 166.493 107.756 165.011 108.203 163.298C109.1 159.867 109.625 155.309 109.625 150.018H106.625ZM101.314 123.832C101.591 124.247 102.085 125.348 102.682 127.105C103.261 128.808 103.894 130.995 104.48 133.47C105.656 138.431 106.625 144.467 106.625 150.018H109.625C109.625 144.158 108.608 137.877 107.399 132.778C106.794 130.223 106.136 127.944 105.522 126.14C104.928 124.391 104.329 122.945 103.811 122.168L101.314 123.832ZM98.5 150.018C98.5 144.467 99.4693 138.431 100.645 133.47C101.231 130.995 101.864 128.808 102.443 127.105C103.04 125.348 103.534 124.247 103.811 123.832L101.314 122.168C100.796 122.945 100.197 124.391 99.6027 126.14C98.9894 127.944 98.3311 130.223 97.7257 132.778C96.5173 137.877 95.5 144.158 95.5 150.018H98.5ZM102.378 167.544C102.13 167.434 101.697 167.077 101.192 166.182C100.703 165.317 100.232 164.101 99.8244 162.541C99.0107 159.426 98.5 155.136 98.5 150.018H95.5C95.5 155.309 96.0255 159.868 96.9218 163.299C97.3693 165.012 97.9218 166.493 98.5799 167.658C99.2208 168.792 100.058 169.796 101.158 170.285L102.378 167.544ZM103.268 173.857V168.915H100.268V173.857H103.268ZM103.357 172.357H101.768V175.357H103.357V172.357ZM101.857 168.915V173.857H104.857V168.915H101.857Z" fill="#3DB6E4" mask="url(#path-1-inside-1_214_1053)"/>
<path d="M256 173C227.167 185 160 218.8 122 258" stroke="#5AC065" stroke-width="2" stroke-linecap="round"/>
<path d="M256 173C224.5 178.333 147.3 201.8 90.5 253" stroke="#5AC065" stroke-width="2" stroke-linecap="round"/>
<path d="M255.5 173C226 170.667 146.8 180.9 66 240.5" stroke="#5AC065" stroke-width="2" stroke-linecap="round"/>
<path d="M255 173C222.167 167.333 134.6 170 47 226" stroke="#5AC065" stroke-width="2" stroke-linecap="round"/>
<path d="M255.5 173C214 167.167 110.9 166 30.5 208" stroke="#5AC065" stroke-width="2" stroke-linecap="round"/>
<path d="M10 193C14 193.667 22.8 195.7 26 198.5" stroke="#5AC065" stroke-width="2" stroke-linecap="round"/>
<path d="M6 184C13.1667 184.667 30.2 187.3 41 192.5" stroke="#5AC065" stroke-width="2" stroke-linecap="round"/>
<path d="M3.5 177C14.8333 177 41.6 178.9 58 186.5" stroke="#5AC065" stroke-width="2" stroke-linecap="round"/>
<path d="M1.5 172C13.5 171 46.4 171.1 82 179.5" stroke="#5AC065" stroke-width="2" stroke-linecap="round"/>
<path d="M0.5 168C17 167.333 62.2 167.7 111 174.5" stroke="#5AC065" stroke-width="2" stroke-linecap="round"/>
<path d="M46 75H17" stroke="#3DB6E4" stroke-width="2" stroke-linecap="round"/>
<path d="M31 58L9 58" stroke="#3DB6E4" stroke-width="2" stroke-linecap="round"/>
<path d="M44 58L36 58" stroke="#3DB6E4" stroke-width="2" stroke-linecap="round"/>
<path d="M33 67H4" stroke="#3DB6E4" stroke-width="1.5" stroke-linecap="round"/>
<path d="M46 67H38" stroke="#3DB6E4" stroke-width="1.5" stroke-linecap="round"/>
<path d="M57 75H52" stroke="#3DB6E4" stroke-width="2" stroke-linecap="round"/>
<path d="M264 106H237" stroke="#3DB6E4" stroke-width="2" stroke-linecap="round"/>
<path d="M262 95L228 95" stroke="#3DB6E4" stroke-width="2" stroke-linecap="round"/>
<path d="M232 106H223" stroke="#3DB6E4" stroke-width="2" stroke-linecap="round"/>
<path d="M223 95H218" stroke="#3DB6E4" stroke-width="2" stroke-linecap="round"/>
<path d="M119.8 55C113.283 55 108 50.9407 108 45.9333C108 41.7077 111.762 38.1573 116.853 37.1517C116.851 37.0569 116.85 36.9619 116.85 36.8667C116.85 28.1037 126.095 21 137.5 21C148.149 21 156.915 27.1936 158.03 35.1484C163.249 36.5224 167 40.3246 167 44.8C167 50.4333 161.057 55 153.725 55C142.695 55 132.154 55 119.8 55Z" stroke="#3DB6E4" stroke-width="2" stroke-linecap="round" stroke-linejoin="round"/>
<path fill-rule="evenodd" clip-rule="evenodd" d="M85.5715 165.479C89.2061 163.861 92 154.034 92 140C92 124.615 86.6429 106.786 84.5 103.571C82.3571 106.786 77 124.615 77 140C77 154.034 79.794 163.861 83.4286 165.479V172.143H85.5715V165.479Z" fill="#5AC065"/>
<rect x="137" y="141" width="57" height="100" rx="6" fill="#1889C0"/>
<path d="M129 230.5C129.4 195.7 134.5 184.667 137 183.5V233.35C137 237.827 140.673 241.432 145.148 241.349L164 241L143 259.5C113.8 259.5 106.167 254.833 106 252.5L129 230.5Z" fill="#E1F5FB" stroke="#1889C0"/>
<rect x="142" y="153" width="47" height="74" fill="#ECECEC"/>
<circle cx="166" cy="204" r="14" stroke="#3DB6E4" stroke-width="2"/>
<circle cx="166" cy="204" r="9.5" stroke="#3DB6E4"/>
<path d="M150 200.853C145.6 202.453 139.833 209.519 137.5 212.853V235.5C151 236 153 216.353 156.5 212.853C160 209.353 162.5 211.853 167 209.853C171.5 207.853 173 207.353 173 201.853C173 196.353 168.5 196.353 161.5 197.853C154.5 199.353 155.5 198.853 150 200.853Z" fill="#E1F5FB" stroke="#1889C0"/>
<path d="M161.5 197.853C161.5 199.686 163.8 202.553 173 199.353" stroke="#1889C0"/>
<rect x="136" y="213" width="2" height="22" fill="#E1F5FB"/>
<path d="M171.957 164.93C172 165.075 172 165.22 172 165.366C171.979 165.801 171.785 166.59 170.712 166.735C170.712 166.735 167.684 166.922 165.344 168.645C165.215 168.728 165.108 168.832 164.979 168.915C164.378 169.309 162.188 170.99 161.264 174.208C161.264 174.208 160.427 176.615 161.028 179.459C161.071 179.666 161.071 179.874 161.028 180.061C160.964 180.33 160.771 180.683 160.32 180.87C159.59 181.202 158.709 180.87 158.366 180.185C158.194 179.812 158.044 179.293 158.044 178.566C158.044 178.566 157.4 172.962 161.05 168.811C161.05 168.811 162.982 166.32 166.632 164.867C166.632 164.867 171.377 162.875 171.957 164.93Z" fill="#5AC065"/>
<path d="M171.876 169.847C172.018 170.151 172.078 170.536 171.836 170.982C171.594 171.428 171.15 171.711 170.646 171.772C169.758 171.873 168.023 172.238 167.135 173.413C167.135 173.413 166.086 174.467 165.925 176.29C165.885 176.736 165.925 177.202 166.026 177.647C166.147 178.215 166.228 179.268 165.522 179.694C165.522 179.694 165.017 180.099 164.372 179.977C163.887 179.876 163.484 179.491 163.343 179.025C163 177.911 162.435 174.993 164.452 172.218C165.098 171.326 165.925 170.597 166.873 170.03C167.821 169.462 169.173 168.895 170.565 169.017C171.13 169.037 171.634 169.341 171.876 169.847Z" fill="#5AC065"/>
<path d="M171 179C172.105 179 173 178.105 173 177C173 175.895 172.105 175 171 175C169.895 175 169 175.895 169 177C169 178.105 169.895 179 171 179Z" fill="#5AC065"/>
<rect x="159" y="146" width="13" height="2" rx="1" fill="#D9D9D9"/>
<rect x="159" y="233" width="13" height="4" rx="1" fill="#D9D9D9"/>
</g>
<defs>
<clipPath id="clip0_214_1053">
<rect width="300" height="260" fill="white"/>
</clipPath>
</defs>
</svg>
