<svg width="236" height="41" viewBox="0 0 236 41" fill="none" xmlns="http://www.w3.org/2000/svg">
<g clip-path="url(#clip0_287_1458)">
<mask id="mask0_287_1458" style="mask-type:luminance" maskUnits="userSpaceOnUse" x="0" y="0" width="236" height="41">
<path d="M235.766 0H0V40.9903H235.766V0Z" fill="white"/>
</mask>
<g mask="url(#mask0_287_1458)">
<path d="M15.11 0C15.11 0 25.235 8.48697 29.0685 18.1928C29.0685 18.1928 8.32241 18.1928 13.2834 40.9903C13.2834 40.9903 -1.28393 39.1845 0.0916278 24.0163C0.429879 20.3371 1.67013 16.7934 3.63199 13.6785C5.63895 10.4281 9.22441 5.59779 15.11 0Z" fill="white"/>
<path d="M29.9255 21.8721C29.9706 22.0301 29.9706 22.1881 29.9706 22.3461C29.948 22.8201 29.7451 23.6779 28.6176 23.8359C28.6176 23.8359 25.438 24.039 22.98 25.9125C22.8447 26.0027 22.732 26.1156 22.5967 26.2059C21.9653 26.6348 19.6652 28.4631 18.6955 31.9617C18.6955 31.9617 17.8161 34.58 18.4475 37.6723C18.4926 37.898 18.4926 38.1238 18.4475 38.3269C18.3798 38.6203 18.1769 39.0041 17.7033 39.2072C16.9366 39.5684 16.0121 39.2072 15.6513 38.4623C15.4709 38.056 15.313 37.4918 15.313 36.7017C15.313 36.7017 14.6365 30.6074 18.47 26.093C18.47 26.093 20.4995 23.3844 24.333 21.8044C24.333 21.8044 29.3166 19.6375 29.9255 21.8721Z" fill="white"/>
<path d="M30.7372 27.3344C30.8951 27.673 30.9627 28.1018 30.6921 28.5984C30.4215 29.095 29.9254 29.411 29.3617 29.4787C28.3695 29.5915 26.4302 29.9978 25.4379 31.307C25.4379 31.307 24.2653 32.4807 24.0849 34.5122C24.0398 35.0088 24.0849 35.5279 24.1977 36.0245C24.333 36.6565 24.4232 37.8302 23.6339 38.3042C23.6339 38.3042 23.0702 38.7557 22.3486 38.6202C21.8074 38.5074 21.3564 38.0785 21.1985 37.5594C20.8152 36.3179 20.1838 33.0676 22.4388 29.9753C23.1604 28.9821 24.0849 28.1695 25.1448 27.5375C26.2047 26.9055 27.7155 26.2735 29.2715 26.4089C29.9029 26.4315 30.4666 26.7701 30.7372 27.3344Z" fill="white"/>
<path d="M29.4067 37.8302C30.839 37.8302 32 36.6681 32 35.2345C32 33.8009 30.839 32.6387 29.4067 32.6387C27.9745 32.6387 26.8135 33.8009 26.8135 35.2345C26.8135 36.6681 27.9745 37.8302 29.4067 37.8302Z" fill="white"/>
<path d="M60.8047 28.8975H57.7578V24.7725H47.0469V28.8975H44V20.4951C44 19.2686 44.2109 18.1397 44.6328 17.1084C45.0547 16.0772 45.6406 15.1905 46.3906 14.4483C47.1406 13.7061 48.0273 13.128 49.0508 12.7139C50.0742 12.2998 51.1914 12.0928 52.4023 12.0928H59.2695C59.4805 12.0928 59.6797 12.1319 59.8672 12.21C60.0547 12.2881 60.2188 12.3975 60.3594 12.5381C60.5 12.6787 60.6094 12.8428 60.6875 13.0303C60.7656 13.2178 60.8047 13.417 60.8047 13.628V28.8975ZM47.0469 21.7256H57.7578V15.1397H52.4023C52.3086 15.1397 52.1094 15.1553 51.8047 15.1866C51.5078 15.21 51.1602 15.2764 50.7617 15.3858C50.3711 15.4951 49.957 15.6631 49.5195 15.8897C49.082 16.1162 48.6797 16.4287 48.3125 16.8272C47.9453 17.2256 47.6406 17.7256 47.3984 18.3272C47.1641 18.9209 47.0469 19.6436 47.0469 20.4951V21.7256Z" fill="white"/>
<path d="M78.7344 13.0069C78.8516 13.2803 78.8867 13.5694 78.8398 13.8741C78.793 14.1709 78.668 14.4248 78.4648 14.6358L68.4102 25.8506H78.7109V28.8975H64.9766C64.6797 28.8975 64.4023 28.8155 64.1445 28.6514C63.8945 28.4795 63.707 28.2569 63.582 27.9834C63.4492 27.71 63.4062 27.4248 63.4531 27.128C63.5078 26.8311 63.6328 26.5733 63.8281 26.3545L73.9062 15.1397H63.582V12.0928H77.3398C77.6367 12.0928 77.9102 12.1787 78.1602 12.3506C78.418 12.5147 78.6094 12.7334 78.7344 13.0069Z" fill="white"/>
<path d="M84.5586 28.8975H81.5117V12.0928H84.5586V28.8975Z" fill="white"/>
<path d="M104.914 17.7412C104.914 18.4366 104.828 19.0576 104.656 19.6045C104.484 20.1514 104.25 20.6358 103.953 21.0576C103.664 21.4717 103.328 21.8272 102.945 22.1241C102.562 22.4209 102.16 22.667 101.738 22.8623C101.324 23.0498 100.902 23.1866 100.473 23.2725C100.051 23.3584 99.6523 23.4014 99.2773 23.4014L105.641 28.8975H100.93L94.5781 23.4014H92.3867V20.3545H99.2773C99.6602 20.3233 100.008 20.2451 100.32 20.1201C100.641 19.9873 100.914 19.8116 101.141 19.5928C101.375 19.3741 101.555 19.1123 101.68 18.8076C101.805 18.4951 101.867 18.1397 101.867 17.7412V15.8194C101.867 15.6475 101.844 15.5186 101.797 15.4326C101.758 15.3389 101.703 15.2725 101.633 15.2334C101.57 15.1866 101.5 15.1592 101.422 15.1514C101.352 15.1436 101.285 15.1397 101.223 15.1397H91.168V28.8975H88.1211V13.628C88.1211 13.417 88.1602 13.2178 88.2383 13.0303C88.3164 12.8428 88.4219 12.6787 88.5547 12.5381C88.6953 12.3975 88.8594 12.2881 89.0469 12.21C89.2344 12.1319 89.4375 12.0928 89.6562 12.0928H101.223C101.902 12.0928 102.477 12.2178 102.945 12.4678C103.414 12.71 103.793 13.0186 104.082 13.3936C104.379 13.7608 104.59 14.1592 104.715 14.5889C104.848 15.0186 104.914 15.4209 104.914 15.7959V17.7412Z" fill="white"/>
<path d="M124.766 17.7412C124.766 18.4366 124.68 19.0576 124.508 19.6045C124.336 20.1514 124.102 20.6358 123.805 21.0576C123.516 21.4717 123.18 21.8272 122.797 22.1241C122.414 22.4209 122.012 22.667 121.59 22.8623C121.176 23.0498 120.754 23.1866 120.324 23.2725C119.902 23.3584 119.504 23.4014 119.129 23.4014L125.492 28.8975H120.781L114.43 23.4014H112.238V20.3545H119.129C119.512 20.3233 119.859 20.2451 120.172 20.1201C120.492 19.9873 120.766 19.8116 120.992 19.5928C121.227 19.3741 121.406 19.1123 121.531 18.8076C121.656 18.4951 121.719 18.1397 121.719 17.7412V15.8194C121.719 15.6475 121.695 15.5186 121.648 15.4326C121.609 15.3389 121.555 15.2725 121.484 15.2334C121.422 15.1866 121.352 15.1592 121.273 15.1514C121.203 15.1436 121.137 15.1397 121.074 15.1397H111.02V28.8975H107.973V13.628C107.973 13.417 108.012 13.2178 108.09 13.0303C108.168 12.8428 108.273 12.6787 108.406 12.5381C108.547 12.3975 108.711 12.2881 108.898 12.21C109.086 12.1319 109.289 12.0928 109.508 12.0928H121.074C121.754 12.0928 122.328 12.2178 122.797 12.4678C123.266 12.71 123.645 13.0186 123.934 13.3936C124.23 13.7608 124.441 14.1592 124.566 14.5889C124.699 15.0186 124.766 15.4209 124.766 15.7959V17.7412Z" fill="white"/>
<path d="M130.895 28.8975H127.848V12.0928H130.895V28.8975Z" fill="white"/>
<path d="M151.039 27.3623C151.039 27.5811 151 27.7842 150.922 27.9717C150.844 28.1592 150.734 28.3233 150.594 28.4639C150.461 28.5967 150.301 28.7022 150.113 28.7803C149.926 28.8584 149.723 28.8975 149.504 28.8975H138.512C138.23 28.8975 137.926 28.8662 137.598 28.8037C137.277 28.7334 136.957 28.628 136.637 28.4873C136.324 28.3467 136.023 28.167 135.734 27.9483C135.445 27.7217 135.188 27.4522 134.961 27.1397C134.742 26.8194 134.566 26.4522 134.434 26.0381C134.301 25.6162 134.234 25.1436 134.234 24.6201V16.3701C134.234 16.0889 134.266 15.7881 134.328 15.4678C134.398 15.1397 134.504 14.8194 134.645 14.5069C134.785 14.1866 134.969 13.8819 135.195 13.5928C135.422 13.3037 135.691 13.0498 136.004 12.8311C136.324 12.6045 136.691 12.4248 137.105 12.292C137.52 12.1592 137.988 12.0928 138.512 12.0928H150.898V15.1397H138.512C138.113 15.1397 137.809 15.2451 137.598 15.4561C137.387 15.667 137.281 15.9795 137.281 16.3936V24.6201C137.281 25.0108 137.387 25.3155 137.598 25.5342C137.816 25.7451 138.121 25.8506 138.512 25.8506H147.992V22.0303H139.883V18.96H149.504C149.723 18.96 149.926 19.003 150.113 19.0889C150.301 19.167 150.461 19.2764 150.594 19.417C150.734 19.5576 150.844 19.7217 150.922 19.9092C151 20.0889 151.039 20.2842 151.039 20.4951V27.3623Z" fill="white"/>
<path d="M170.703 28.8975H167.656V24.7725H156.945V28.8975H153.898V20.4951C153.898 19.2686 154.109 18.1397 154.531 17.1084C154.953 16.0772 155.539 15.1905 156.289 14.4483C157.039 13.7061 157.926 13.128 158.949 12.7139C159.973 12.2998 161.09 12.0928 162.301 12.0928H169.168C169.379 12.0928 169.578 12.1319 169.766 12.21C169.953 12.2881 170.117 12.3975 170.258 12.5381C170.398 12.6787 170.508 12.8428 170.586 13.0303C170.664 13.2178 170.703 13.417 170.703 13.628V28.8975ZM156.945 21.7256H167.656V15.1397H162.301C162.207 15.1397 162.008 15.1553 161.703 15.1866C161.406 15.21 161.059 15.2764 160.66 15.3858C160.27 15.4951 159.855 15.6631 159.418 15.8897C158.98 16.1162 158.578 16.4287 158.211 16.8272C157.844 17.2256 157.539 17.7256 157.297 18.3272C157.062 18.9209 156.945 19.6436 156.945 20.4951V21.7256Z" fill="white"/>
<path d="M189.441 15.1397H182.727V28.8975H179.68V15.1397H172.953V12.0928H189.441V15.1397Z" fill="white"/>
<path d="M194.762 28.8975H191.715V12.0928H194.762V28.8975Z" fill="white"/>
<path d="M215.961 22.1006C215.961 23.1241 215.785 24.0655 215.434 24.9248C215.082 25.7842 214.594 26.5264 213.969 27.1514C213.344 27.7764 212.602 28.2647 211.742 28.6162C210.891 28.96 209.961 29.1319 208.953 29.1319H204.828C203.82 29.1319 202.887 28.96 202.027 28.6162C201.168 28.2647 200.426 27.7764 199.801 27.1514C199.176 26.5264 198.684 25.7842 198.324 24.9248C197.973 24.0655 197.797 23.1241 197.797 22.1006V18.8897C197.797 17.8741 197.973 16.9366 198.324 16.0772C198.684 15.21 199.176 14.4678 199.801 13.8506C200.426 13.2256 201.168 12.7373 202.027 12.3858C202.887 12.0342 203.82 11.8584 204.828 11.8584H208.953C209.961 11.8584 210.891 12.0342 211.742 12.3858C212.602 12.7373 213.344 13.2256 213.969 13.8506C214.594 14.4678 215.082 15.21 215.434 16.0772C215.785 16.9366 215.961 17.8741 215.961 18.8897V22.1006ZM212.914 18.8897C212.914 18.2881 212.816 17.7451 212.621 17.2608C212.434 16.7686 212.164 16.3506 211.812 16.0069C211.469 15.6553 211.051 15.3858 210.559 15.1983C210.074 15.003 209.539 14.9053 208.953 14.9053H204.828C204.234 14.9053 203.691 15.003 203.199 15.1983C202.715 15.3858 202.297 15.6553 201.945 16.0069C201.594 16.3506 201.32 16.7686 201.125 17.2608C200.938 17.7451 200.844 18.2881 200.844 18.8897V22.1006C200.844 22.7022 200.938 23.2491 201.125 23.7412C201.32 24.2256 201.594 24.6436 201.945 24.9951C202.297 25.3389 202.715 25.6084 203.199 25.8037C203.691 25.9912 204.234 26.085 204.828 26.085H208.93C209.523 26.085 210.062 25.9912 210.547 25.8037C211.039 25.6084 211.461 25.3389 211.812 24.9951C212.164 24.6436 212.434 24.2256 212.621 23.7412C212.816 23.2491 212.914 22.7022 212.914 22.1006V18.8897Z" fill="white"/>
<path d="M235.766 27.5968C235.766 27.8156 235.723 28.0187 235.637 28.2062C235.559 28.3937 235.449 28.5577 235.309 28.6984C235.176 28.8312 235.016 28.9367 234.828 29.0148C234.641 29.0929 234.441 29.132 234.23 29.132C234.043 29.132 233.852 29.0968 233.656 29.0265C233.469 28.9562 233.301 28.8429 233.152 28.6867L222.02 17.0617V28.8976H218.973V13.3937C218.973 13.0812 219.059 12.7999 219.23 12.5499C219.41 12.2921 219.637 12.1007 219.91 11.9757C220.199 11.8585 220.496 11.8312 220.801 11.8937C221.105 11.9484 221.367 12.089 221.586 12.3156L232.719 23.9288V12.0929H235.766V27.5968Z" fill="white"/>
</g>
</g>
<defs>
<clipPath id="clip0_287_1458">
<rect width="236" height="41" fill="white"/>
</clipPath>
</defs>
</svg>
