<svg width="16" height="16" viewBox="0 0 16 16" fill="none" xmlns="http://www.w3.org/2000/svg">
<path d="M7.13844 0C7.13844 0 11.2517 3.31199 12.8091 7.09963C12.8091 7.09963 4.38098 7.09963 6.39638 15.9962C6.39638 15.9962 0.478404 15.2915 1.03722 9.37222C1.17464 7.93643 1.67849 6.55352 2.4755 5.33795C3.29082 4.0695 4.74742 2.1845 7.13844 0Z" fill="#27AAE1"/>
<path d="M13.1572 8.53541C13.1756 8.59707 13.1756 8.65873 13.1756 8.72039C13.1664 8.90536 13.084 9.24011 12.6259 9.30177C12.6259 9.30177 11.3342 9.38103 10.3356 10.1122C10.2807 10.1474 10.2349 10.1914 10.1799 10.2267C9.92341 10.394 8.98899 11.1075 8.59505 12.4728C8.59505 12.4728 8.2378 13.4946 8.4943 14.7013C8.51263 14.7894 8.51263 14.8775 8.4943 14.9568C8.4668 15.0713 8.38437 15.2211 8.19197 15.3003C7.8805 15.4413 7.50492 15.3003 7.35835 15.0096C7.28506 14.8511 7.22091 14.6309 7.22091 14.3226C7.22091 14.3226 6.94608 11.9443 8.50344 10.1826C8.50344 10.1826 9.32793 9.12558 10.8853 8.50899C10.8853 8.50899 12.9099 7.66337 13.1572 8.53541Z" fill="#39B54A"/>
<path d="M13.487 10.6671C13.5512 10.7992 13.5786 10.9666 13.4687 11.1604C13.3588 11.3542 13.1572 11.4775 12.9282 11.5039C12.5251 11.5479 11.7373 11.7065 11.3342 12.2174C11.3342 12.2174 10.8578 12.6754 10.7845 13.4682C10.7662 13.662 10.7845 13.8646 10.8303 14.0583C10.8853 14.305 10.922 14.763 10.6013 14.948C10.6013 14.948 10.3723 15.1242 10.0791 15.0713C9.85928 15.0273 9.67606 14.8599 9.61192 14.6573C9.4562 14.1728 9.1997 12.9044 10.1158 11.6977C10.4089 11.3101 10.7845 10.993 11.2151 10.7463C11.6457 10.4997 12.2594 10.2531 12.8916 10.3059C13.1481 10.3147 13.3771 10.4469 13.487 10.6671Z" fill="#39B54A"/>
<path d="M12.9465 14.763C13.5284 14.763 14 14.3095 14 13.7501C14 13.1906 13.5284 12.7371 12.9465 12.7371C12.3647 12.7371 11.893 13.1906 11.893 13.7501C11.893 14.3095 12.3647 14.763 12.9465 14.763Z" fill="#39B54A"/>
</svg>
