<svg width="120" height="120" viewBox="0 0 120 120" fill="none" xmlns="http://www.w3.org/2000/svg">
<path fill-rule="evenodd" clip-rule="evenodd" d="M61.2753 3.72702L61.4402 10.0809L62.757 10.0468L62.5925 3.70733C62.5709 2.87167 62.3886 2.16993 62.0456 1.6021C61.6932 1.04414 61.2289 0.633245 60.6525 0.369432C60.0664 0.105869 59.4164 -0.0166695 58.7025 0.00181761C57.9887 0.0203047 57.3507 0.176195 56.7888 0.469487C56.2172 0.76303 55.7699 1.19753 55.447 1.77298C55.1242 2.35804 54.9737 3.0684 54.9954 3.90406L55.1599 10.2435L56.4767 10.2094L56.3119 3.85555C56.2887 2.96226 56.4934 2.29375 56.926 1.85002C57.3489 1.40654 57.9462 1.17481 58.718 1.15483C59.4994 1.13459 60.1176 1.33484 60.5726 1.75559C61.0179 2.17658 61.2522 2.83373 61.2753 3.72702ZM60.705 11.3254C60.5469 11.1854 60.3617 11.1181 60.1495 11.1236C59.9469 11.1288 59.7751 11.2053 59.6342 11.3532C59.4836 11.5012 59.411 11.6809 59.4165 11.8923C59.422 12.1036 59.5037 12.2793 59.6618 12.4194C59.8105 12.5693 59.9862 12.6416 60.1888 12.6364C60.401 12.6309 60.5823 12.5493 60.7327 12.3916C60.8736 12.2438 60.9414 12.0642 60.9359 11.8529C60.9304 11.6416 60.8535 11.4658 60.705 11.3254ZM58.3463 11.3865C58.1978 11.2462 58.0175 11.1788 57.8053 11.1843C57.593 11.1898 57.4164 11.2664 57.2754 11.4143C57.1248 11.5623 57.0523 11.742 57.0577 11.9533C57.0632 12.1647 57.145 12.3404 57.3031 12.4804C57.4518 12.6304 57.6323 12.7026 57.8445 12.6971C58.0567 12.6916 58.2332 12.6101 58.3739 12.4527C58.5149 12.3049 58.5827 12.1253 58.5772 11.914C58.5717 11.7027 58.4947 11.5269 58.3463 11.3865ZM71.3563 1.09855C72.0099 1.22533 72.5752 1.45245 73.0522 1.77991C73.5178 2.11497 73.8581 2.5138 74.0729 2.9764C74.2859 3.44843 74.3448 3.95423 74.2498 4.49377L72.8716 4.22643C72.9141 3.755 72.8007 3.32677 72.5315 2.94172C72.251 2.56426 71.7887 2.31307 71.1446 2.18813C70.5289 2.0687 70.0164 2.12592 69.6073 2.35981C69.1869 2.6013 68.9299 2.9626 68.8364 3.44371C68.7631 3.82105 68.8077 4.14785 68.9703 4.42411C69.1328 4.70037 69.3585 4.93014 69.6472 5.11341C69.936 5.29668 70.3318 5.51051 70.8348 5.75491C71.4554 6.05149 71.9481 6.32327 72.3129 6.57024C72.6683 6.81538 72.9532 7.14474 73.1677 7.55834C73.371 7.97953 73.413 8.49672 73.2938 9.10989C73.1893 9.64761 72.9594 10.0974 72.604 10.4591C72.2487 10.8209 71.8027 11.0673 71.2662 11.1981C70.7201 11.3271 70.1251 11.3292 69.4809 11.2042C68.5527 11.0242 67.8398 10.6461 67.3423 10.0699C66.8354 9.49191 66.6183 8.81351 66.691 8.03469L68.1118 8.3103C68.0859 8.69683 68.2206 9.06558 68.5161 9.41657C68.8098 9.777 69.2455 10.0132 69.8233 10.1253C70.3632 10.2301 70.8312 10.174 71.2272 9.95714C71.6214 9.74971 71.867 9.39601 71.9642 8.89603C72.0338 8.53756 71.9912 8.22582 71.8363 7.96084C71.6719 7.69401 71.4548 7.4708 71.185 7.2912C70.9039 7.1192 70.508 6.90537 69.9974 6.6497C69.3787 6.34369 68.8878 6.06247 68.5248 5.80607C68.1599 5.55909 67.8712 5.22409 67.6585 4.80106C67.444 4.38747 67.3972 3.86936 67.5182 3.24675C67.6117 2.76564 67.8276 2.33764 68.1658 1.96274C68.5041 1.58784 68.9499 1.31701 69.5032 1.15025C70.0566 0.983494 70.6743 0.966261 71.3563 1.09855ZM86.297 6.31556L81.679 15.2472L82.8485 15.8508L87.4665 6.91914L86.297 6.31556ZM89.0304 16.0908C88.8922 16.7259 88.9356 17.331 89.1605 17.9061C89.3796 18.4889 89.7674 18.9952 90.324 19.4252C90.8806 19.8552 91.4839 20.1146 92.134 20.2033C92.7707 20.2938 93.4041 20.1994 94.0344 19.9202C94.6513 19.6427 95.2012 19.1919 95.6842 18.5679C96.1672 17.9438 96.4655 17.2986 96.5792 16.6323C96.6851 15.9602 96.6172 15.3239 96.3752 14.7235C96.1198 14.1248 95.7138 13.6105 95.1572 13.1805C94.3795 12.5797 93.5594 12.317 92.6968 12.3925C91.8343 12.4681 91.0548 12.8692 90.3583 13.5959L93.5377 16.0522L92.8838 16.897L88.5951 13.5837L89.2136 12.7845C89.7812 12.1771 90.4524 11.7349 91.2272 11.4579C91.9962 11.1885 92.7903 11.1148 93.6095 11.2369C94.4229 11.3666 95.1803 11.7025 95.8817 12.2444C96.6213 12.8157 97.1635 13.5082 97.5084 14.322C97.8474 15.1433 97.9575 16.0006 97.8387 16.8939C97.7123 17.7814 97.3486 18.6132 96.7478 19.3895C96.147 20.1659 95.4326 20.7268 94.6048 21.0723C93.7634 21.4195 92.9052 21.5288 92.0302 21.4001C91.1493 21.279 90.339 20.9327 89.5995 20.3614C88.7532 19.7075 88.1679 18.921 87.8439 18.0017C87.5121 17.0766 87.4921 16.1186 87.7838 15.1278L89.0304 16.0908ZM86.4557 21.0703C86.7915 20.6365 87.2132 20.3907 87.7209 20.333C88.215 20.2769 88.7175 20.4462 89.2284 20.8408C89.7392 21.2355 90.0334 21.6817 90.1111 22.1796C90.1829 22.685 90.048 23.1584 89.7063 23.5998L89.5561 23.7939L88.9385 23.3168C89.1624 23.0276 89.2531 22.745 89.2108 22.4691C89.1626 22.2008 88.9594 21.9282 88.601 21.6514C88.2503 21.3805 87.9389 21.2554 87.6669 21.2763C87.389 21.3049 87.1381 21.4637 86.9142 21.7529L86.2967 21.2758L86.4557 21.0703ZM105.51 25.3471L102.769 21.9195L104.014 19.8907L103.149 18.8083L97.5856 27.8863L98.5324 29.0702L108.631 25.6633L107.766 24.581L105.51 25.3471ZM99.3284 27.4741L102.168 22.8799L104.44 25.7211L99.3284 27.4741ZM108.71 31.1687C109.117 30.9691 109.558 30.8815 110.032 30.906C110.493 30.9261 110.946 31.0731 111.393 31.3469C111.835 31.6121 112.215 32.0038 112.534 32.5221L113.274 32.1589C113.015 31.654 112.924 31.1953 113.001 30.7828C113.077 30.3703 113.324 30.0621 113.739 29.8583C114.146 29.6586 114.543 29.6461 114.929 29.8206C115.316 29.9951 115.624 30.3154 115.853 30.7814L116.585 32.2702L115.818 32.6461L115.201 31.3903C115.061 31.1055 114.916 30.9196 114.766 30.8327C114.611 30.737 114.43 30.7402 114.223 30.8421C114.024 30.9398 113.915 31.0789 113.896 31.2595C113.873 31.4314 113.932 31.6598 114.072 31.9446L114.39 32.5919L112.922 33.3118C113.252 34.157 113.315 34.9403 113.111 35.6617C112.906 36.3832 112.46 36.9181 111.772 37.2665L111.155 36.0107C111.558 35.7595 111.832 35.4106 111.978 34.9641C112.111 34.5133 112.033 33.9944 111.745 33.4076C111.469 32.8466 111.114 32.4744 110.68 32.291C110.233 32.1032 109.789 32.1176 109.348 32.3342C109.001 32.5041 108.767 32.737 108.644 33.0331C108.521 33.3291 108.473 33.6472 108.5 33.9872C108.528 34.3272 108.595 34.7707 108.703 35.3177C108.84 35.9897 108.919 36.5451 108.942 36.984C108.96 37.4143 108.868 37.8396 108.666 38.2599C108.452 38.6758 108.063 39.0218 107.501 39.2979C107.007 39.54 106.508 39.6293 106.005 39.5659C105.501 39.5025 105.035 39.2974 104.606 38.9505C104.174 38.5951 103.813 38.1239 103.525 37.537C103.109 36.6912 102.982 35.8968 103.143 35.1536C103.3 34.4017 103.712 33.8193 104.379 33.4062L105.015 34.7008C104.69 34.9138 104.476 35.2437 104.374 35.6905C104.262 36.1414 104.336 36.6302 104.595 37.1566C104.836 37.6486 105.164 37.9862 105.576 38.1694C105.98 38.357 106.411 38.3382 106.87 38.1131C107.199 37.9517 107.423 37.7294 107.541 37.4462C107.656 37.1544 107.703 36.8472 107.684 36.5244C107.653 36.1973 107.585 35.7538 107.482 35.1939C107.353 34.5177 107.282 33.958 107.269 33.5148C107.246 33.0759 107.34 32.6442 107.551 32.2196C107.752 31.7993 108.139 31.449 108.71 31.1687ZM115.302 47.6278L114.264 43.3698L116.253 42.0553L115.925 40.7107L107.037 46.5966L107.395 48.0673L118 49.2266L117.672 47.882L115.302 47.6278ZM108.792 46.9559L113.312 43.9871L114.172 47.5167L108.792 46.9559ZM117.504 72.8472L112.944 74.2447L112.585 75.7892L116.603 76.7224L116.305 78.0001L106.48 75.7177L107.215 72.5586C107.387 71.8191 107.659 71.2261 108.03 70.7796C108.404 70.3237 108.836 70.0196 109.327 69.8673C109.818 69.715 110.341 69.7032 110.895 69.832C111.572 69.9892 112.123 70.3244 112.549 70.8376C112.976 71.3414 113.184 72.0015 113.172 72.8177L117.861 71.3167L117.504 72.8472ZM111.556 75.5501L111.994 73.6687C112.155 72.976 112.107 72.4172 111.849 71.9923C111.582 71.5651 111.162 71.285 110.588 71.1518C110.006 71.0165 109.514 71.0849 109.114 71.357C108.716 71.6197 108.436 72.1021 108.272 72.8042L107.834 74.6856L111.556 75.5501ZM4.6984 72.3722L5.73595 76.6302L3.74746 77.9447L4.07511 79.2893L12.9635 73.4034L12.6051 71.9327L2 70.7734L2.32765 72.118L4.6984 72.3722ZM11.2076 73.0441L6.68781 76.0129L5.82773 72.4833L11.2076 73.0441ZM9.9684 89.094C10.4424 89.1185 10.8829 89.031 11.2897 88.8313C11.8611 88.551 12.2476 88.2007 12.4492 87.7804C12.6596 87.3559 12.7536 86.9241 12.7312 86.4852C12.7175 86.042 12.6466 85.4823 12.5183 84.8061C12.415 84.2463 12.3475 83.8027 12.3156 83.4756C12.2966 83.1529 12.3444 82.8456 12.4588 82.5538C12.5775 82.2706 12.8013 82.0483 13.1302 81.8869C13.589 81.6618 14.0203 81.643 14.424 81.8306C14.8364 82.0139 15.1635 82.3515 15.4053 82.8434C15.6641 83.3698 15.7378 83.8586 15.6264 84.3096C15.5237 84.7563 15.3098 85.0862 14.9847 85.2992L15.621 86.5938C16.2883 86.1807 16.7003 85.5983 16.8573 84.8464C17.0184 84.1033 16.8911 83.3088 16.4754 82.463C16.1869 81.8761 15.8264 81.4049 15.3938 81.0495C14.9655 80.7026 14.4994 80.4975 13.9955 80.4341C13.4916 80.3707 12.9929 80.46 12.4995 80.7021C11.9368 80.9782 11.5482 81.3242 11.3336 81.7401C11.1319 82.1604 11.0401 82.5857 11.0582 83.016C11.0806 83.4549 11.1602 84.0103 11.2971 84.6823C11.4048 85.2293 11.4724 85.6728 11.4999 86.0128C11.5273 86.3528 11.4795 86.6709 11.3564 86.9669C11.2333 87.263 10.9986 87.4959 10.6524 87.6658C10.2109 87.8824 9.76674 87.8968 9.31987 87.709C8.88591 87.5256 8.53106 87.1534 8.25533 86.5924C7.96687 86.0056 7.88911 85.4867 8.02206 85.0359C8.1679 84.5894 8.44231 84.2405 8.84526 83.9893L8.22804 82.7336C7.53977 83.082 7.09358 83.6169 6.88949 84.3383C6.68539 85.0597 6.74809 85.843 7.0776 86.6883L5.61033 87.4081L5.92848 88.0554C6.06847 88.3402 6.127 88.5686 6.10407 88.7405C6.08537 88.9211 5.97648 89.0602 5.77738 89.1579C5.56963 89.2598 5.38853 89.263 5.23409 89.1674C5.0839 89.0804 4.9388 88.8945 4.79881 88.6097L4.18159 87.354L3.4155 87.7298L4.14725 89.2186C4.37633 89.6846 4.68417 90.0049 5.07078 90.1794C5.45739 90.3539 5.85412 90.3414 6.26098 90.1418C6.67649 89.9379 6.92254 89.6297 6.99914 89.2172C7.07573 88.8047 6.98456 88.346 6.72562 87.8411L7.46575 87.4779C7.78494 87.9962 8.1655 88.3879 8.60743 88.6531C9.0536 88.9269 9.50726 89.0739 9.9684 89.094ZM17.2312 98.0805L14.4899 94.653L12.2344 95.419L11.3688 94.3367L21.4676 90.9298L22.4144 92.1137L16.8513 101.192L15.9856 100.109L17.2312 98.0805ZM17.8324 97.1201L20.6716 92.5259L15.5601 94.2789L17.8324 97.1201ZM30.8395 102.094C31.0644 102.669 31.1078 103.274 30.9696 103.909L32.2162 104.872C32.5079 103.881 32.4879 102.923 32.1562 101.998C31.8321 101.079 31.2469 100.292 30.4005 99.6386C29.661 99.0673 28.8507 98.7211 27.9698 98.5999C27.0948 98.4712 26.2366 98.5805 25.3952 98.9277C24.5674 99.2732 23.853 99.8342 23.2522 100.61C22.6514 101.387 22.2877 102.219 22.1613 103.106C22.0425 103.999 22.1526 104.857 22.4916 105.678C22.8365 106.492 23.3787 107.184 24.1183 107.756C24.8197 108.298 25.5771 108.633 26.3905 108.763C27.2097 108.885 28.0038 108.812 28.7728 108.542C29.5476 108.265 30.2188 107.823 30.7864 107.215L31.4049 106.416L27.1162 103.103L26.4623 103.948L29.6417 106.404C28.9452 107.131 28.1657 107.532 27.3032 107.607C26.4406 107.683 25.6205 107.42 24.8428 106.82C24.2863 106.39 23.8802 105.875 23.6248 105.277C23.3828 104.676 23.3149 104.04 23.4209 103.368C23.5345 102.701 23.8328 102.056 24.3158 101.432C24.7988 100.808 25.3487 100.357 25.9656 100.08C26.5959 99.8006 27.2294 99.7062 27.866 99.7967C28.5161 99.8854 29.1194 100.145 29.676 100.575C30.2326 101.005 30.6204 101.511 30.8395 102.094ZM32.2791 99.6671C32.7868 99.6093 33.2085 99.3635 33.5443 98.9297L33.7033 98.7242L33.0858 98.2471C32.8619 98.5363 32.611 98.6951 32.3331 98.7237C32.0611 98.7446 31.7497 98.6196 31.399 98.3486C31.0406 98.0718 30.8374 97.7992 30.7892 97.5309C30.7469 97.255 30.8376 96.9724 31.0615 96.6832L30.4439 96.2061L30.2937 96.4002C29.952 96.8416 29.8171 97.315 29.8889 97.8205C29.9666 98.3183 30.2608 98.7645 30.7716 99.1592C31.2825 99.5538 31.785 99.7231 32.2791 99.6671ZM38.3211 104.753L33.703 113.684L32.5335 113.081L37.1516 104.149L38.3211 104.753ZM46.9478 118.22C47.4248 118.548 47.9901 118.775 48.6437 118.901C49.3257 119.034 49.9434 119.017 50.4968 118.85C51.0501 118.683 51.4959 118.412 51.8342 118.037C52.1724 117.662 52.3883 117.234 52.4818 116.753C52.6028 116.131 52.556 115.613 52.3415 115.199C52.1288 114.776 51.8401 114.441 51.4752 114.194C51.1122 113.938 50.6213 113.656 50.0026 113.35C49.492 113.095 49.0961 112.881 48.815 112.709C48.5452 112.529 48.3281 112.306 48.1637 112.039C48.0088 111.774 47.9662 111.462 48.0358 111.104C48.133 110.604 48.3786 110.25 48.7728 110.043C49.1688 109.826 49.6368 109.77 50.1767 109.875C50.7545 109.987 51.1902 110.223 51.4839 110.583C51.7794 110.934 51.9141 111.303 51.8881 111.69L53.309 111.965C53.3817 111.187 53.1646 110.508 52.6577 109.93C52.1602 109.354 51.4473 108.976 50.519 108.796C49.8749 108.671 49.2799 108.673 48.7338 108.802C48.1973 108.933 47.7513 109.179 47.396 109.541C47.0406 109.903 46.8107 110.352 46.7062 110.89C46.587 111.503 46.629 112.02 46.8322 112.442C47.0468 112.855 47.3317 113.185 47.6871 113.43C48.0519 113.677 48.5446 113.949 49.1652 114.245C49.6682 114.49 50.064 114.703 50.3528 114.887C50.6415 115.07 50.8672 115.3 51.0297 115.576C51.1923 115.852 51.2369 116.179 51.1636 116.556C51.0701 117.037 50.8131 117.399 50.3927 117.64C49.9836 117.874 49.4711 117.931 48.8554 117.812C48.2113 117.687 47.749 117.436 47.4685 117.058C47.1993 116.673 47.0859 116.245 47.1284 115.774L45.7502 115.506C45.6551 116.046 45.7141 116.552 45.9271 117.024C46.1419 117.486 46.4822 117.885 46.9478 118.22ZM58.5598 109.919L58.7246 116.273C58.7478 117.166 58.9821 117.823 59.4274 118.244C59.8824 118.665 60.5006 118.865 61.282 118.845C62.0538 118.825 62.6511 118.593 63.074 118.15C63.5066 117.706 63.7113 117.038 63.6881 116.144L63.5233 109.791L64.8401 109.756L65.0046 116.096C65.0262 116.932 64.8757 117.642 64.553 118.227C64.2301 118.802 63.7828 119.237 63.2112 119.531C62.6493 119.824 62.0113 119.98 61.2974 119.998C60.5836 120.017 59.9336 119.894 59.3475 119.631C58.7711 119.367 58.3067 118.956 57.9544 118.398C57.6114 117.83 57.4291 117.128 57.4074 116.293L57.243 109.953L58.5598 109.919ZM59.8505 108.876C59.6382 108.882 59.4531 108.815 59.295 108.675C59.1465 108.534 59.0696 108.358 59.0641 108.147C59.0586 107.936 59.1263 107.756 59.2673 107.608C59.4177 107.451 59.599 107.369 59.8112 107.364C60.0138 107.358 60.1895 107.431 60.3382 107.581C60.4962 107.721 60.578 107.896 60.5835 108.108C60.589 108.319 60.5164 108.499 60.3658 108.647C60.2248 108.795 60.0531 108.871 59.8505 108.876ZM62.1947 108.816C61.9825 108.821 61.8022 108.754 61.6537 108.613C61.5053 108.473 61.4283 108.297 61.4228 108.086C61.4173 107.875 61.4851 107.695 61.626 107.547C61.7668 107.39 61.9432 107.308 62.1555 107.303C62.3677 107.297 62.5482 107.37 62.6969 107.52C62.855 107.66 62.9368 107.835 62.9422 108.047C62.9477 108.258 62.8752 108.438 62.7245 108.586C62.5836 108.734 62.407 108.81 62.1947 108.816ZM72.6657 114.319L75.9891 117.727L77.52 117.347L74.0459 113.872C74.7813 113.511 75.2772 113.027 75.5335 112.418C75.7992 111.808 75.8485 111.167 75.6814 110.495C75.5445 109.945 75.2963 109.486 74.9368 109.12C74.5772 108.754 74.1087 108.509 73.531 108.385C72.9627 108.259 72.3087 108.287 71.569 108.471L68.4088 109.256L70.8344 119.007L72.1125 118.689L71.1207 114.702L72.6657 114.319ZM72.7488 113.214L70.8667 113.681L69.9479 109.988L71.83 109.52C72.5323 109.346 73.0914 109.375 73.5074 109.609C73.9327 109.84 74.2173 110.245 74.3612 110.823C74.5027 111.392 74.4431 111.892 74.1825 112.323C73.9196 112.745 73.4417 113.042 72.7488 113.214ZM79.1626 106.014L81.996 111.71C82.3944 112.511 82.8843 113.008 83.4656 113.203C84.0556 113.393 84.7004 113.314 85.3999 112.967C86.0908 112.624 86.5342 112.162 86.73 111.582C86.9345 110.997 86.8376 110.304 86.4392 109.503L83.6057 103.808L84.7845 103.222L87.6116 108.905C87.9843 109.654 88.148 110.362 88.1027 111.029C88.0532 111.687 87.8314 112.269 87.4375 112.776C87.0522 113.279 86.54 113.689 85.901 114.007C85.2619 114.324 84.6212 114.486 83.9788 114.494C83.3451 114.497 82.7507 114.32 82.1957 113.962C81.6451 113.591 81.1835 113.031 80.8108 112.282L77.9838 106.6L79.1626 106.014ZM79.8916 104.525C79.7016 104.619 79.5054 104.636 79.303 104.575C79.1092 104.511 78.9652 104.384 78.8709 104.194C78.7767 104.005 78.7622 103.813 78.8275 103.62C78.8972 103.413 79.027 103.263 79.217 103.169C79.3983 103.079 79.588 103.07 79.7861 103.144C79.9885 103.204 80.1369 103.329 80.2311 103.519C80.3253 103.708 80.3355 103.902 80.2616 104.099C80.1963 104.293 80.073 104.435 79.8916 104.525ZM81.9901 103.483C81.8001 103.577 81.6082 103.592 81.4145 103.527C81.2207 103.462 81.0767 103.335 80.9824 103.146C80.8882 102.956 80.8737 102.765 80.939 102.571C81 102.369 81.1255 102.221 81.3155 102.127C81.5055 102.032 81.6995 102.022 81.8976 102.095C82.1 102.156 82.2483 102.281 82.3426 102.47C82.4368 102.66 82.447 102.853 82.373 103.051C82.3078 103.244 82.1801 103.388 81.9901 103.483ZM98.0575 104.079C97.9775 103.612 97.7953 103.202 97.5111 102.85C97.112 102.356 96.685 102.058 96.2302 101.954C95.7693 101.844 95.327 101.848 94.9031 101.967C94.4732 102.079 93.942 102.272 93.3096 102.547C92.7854 102.772 92.367 102.936 92.0544 103.04C91.7433 103.13 91.4326 103.152 91.1225 103.105C90.8198 103.052 90.5536 102.884 90.3238 102.599C90.0033 102.202 89.8903 101.786 89.985 101.352C90.0735 100.909 90.3316 100.516 90.7591 100.171C91.2166 99.8023 91.6778 99.6221 92.1428 99.6305C92.6017 99.6314 92.9709 99.7665 93.2503 100.036L94.3753 99.1288C93.8254 98.5707 93.1661 98.2986 92.3973 98.3126C91.6359 98.3206 90.8878 98.6209 90.1528 99.2135C89.6427 99.6246 89.2616 100.08 89.0092 100.58C88.7644 101.075 88.6662 101.574 88.7148 102.079C88.7634 102.584 88.9601 103.049 89.3048 103.476C89.6979 103.963 90.1211 104.265 90.5744 104.381C91.0292 104.484 91.4648 104.479 91.8812 104.366C92.3051 104.247 92.8302 104.046 93.4565 103.764C93.9672 103.538 94.3857 103.373 94.7118 103.271C95.0379 103.169 95.359 103.145 95.6752 103.199C95.9914 103.253 96.2705 103.43 96.5124 103.73C96.8208 104.112 96.9323 104.541 96.8469 105.018C96.7629 105.481 96.4772 105.909 95.9897 106.302C95.4797 106.714 94.9899 106.904 94.5203 106.875C94.0522 106.832 93.6512 106.642 93.3174 106.306L92.2261 107.185C92.7174 107.778 93.3378 108.094 94.0873 108.133C94.8368 108.171 95.5882 107.937 96.3416 107.428L97.3666 108.697L97.9292 108.244C98.1767 108.044 98.3869 107.937 98.5599 107.921C98.7403 107.899 98.9001 107.974 99.0392 108.146C99.1844 108.326 99.2272 108.502 99.1676 108.673C99.1156 108.839 98.9659 109.021 98.7184 109.221L97.6271 110.101L98.1623 110.763L99.4561 109.72C99.8611 109.394 100.106 109.023 100.192 108.608C100.278 108.192 100.178 107.809 99.8942 107.457C99.6039 107.098 99.2489 106.926 98.8292 106.943C98.4095 106.96 97.9814 107.151 97.5449 107.515L97.0278 106.875C97.4641 106.449 97.7632 105.991 97.9253 105.502C98.095 105.007 98.139 104.532 98.0575 104.079ZM97.3532 92.3529C98.0385 91.496 98.7926 90.8849 99.6153 90.5194C100.436 90.1405 101.277 90.0231 102.136 90.1672C103.001 90.3038 103.837 90.6937 104.642 91.3368C105.448 91.98 106.013 92.7081 106.337 93.5212C106.66 94.3207 106.727 95.1624 106.538 96.0462C106.348 96.9165 105.91 97.7801 105.225 98.637L103.268 101.084L95.3965 94.7995L97.3532 92.3529ZM104.378 97.9608C105.189 96.9461 105.541 95.9585 105.434 94.9981C105.318 94.0317 104.775 93.1607 103.804 92.3854C102.825 91.604 101.844 91.2645 100.862 91.3669C99.8855 91.4618 98.9945 92.0128 98.1889 93.0201L97.0528 94.4407L103.242 99.3814L104.378 97.9608ZM108.343 87.5391L102.588 84.7889L102.021 85.9729L107.763 88.7168C108.52 89.0785 109.23 89.2366 109.894 89.1911C110.552 89.1328 111.13 88.9081 111.628 88.5169C112.129 88.1171 112.533 87.5962 112.841 86.9544C113.148 86.3125 113.298 85.6754 113.29 85.0431C113.287 84.4022 113.102 83.8072 112.734 83.2584C112.357 82.7054 111.79 82.248 111.033 81.8863L105.291 79.1424L104.724 80.3264L110.48 83.0765C111.289 83.4631 111.794 83.9495 111.994 84.5356C112.199 85.1129 112.135 85.7486 111.803 86.4425C111.466 87.145 111.007 87.6023 110.425 87.8142C109.846 88.0174 109.152 87.9257 108.343 87.5391ZM101.809 83.5693C102.006 83.4929 102.15 83.3593 102.241 83.1685C102.328 82.9863 102.338 82.799 102.27 82.6066C102.206 82.4054 102.078 82.2591 101.887 82.1677C101.695 82.0762 101.501 82.0687 101.304 82.1451C101.102 82.2087 100.958 82.3315 100.871 82.5137C100.78 82.7045 100.77 82.9026 100.843 83.1079C100.911 83.3003 101.041 83.4423 101.233 83.5337C101.424 83.6252 101.616 83.6371 101.809 83.5693ZM102.824 81.4486C103.017 81.3809 103.159 81.2516 103.25 81.0608C103.342 80.87 103.353 80.6783 103.285 80.4859C103.221 80.2847 103.093 80.1384 102.902 80.047C102.71 79.9555 102.516 79.948 102.319 80.0244C102.118 80.088 101.971 80.2152 101.88 80.406C101.789 80.5968 101.781 80.7905 101.858 80.9872C101.927 81.1796 102.056 81.3216 102.248 81.4131C102.439 81.5045 102.631 81.5164 102.824 81.4486ZM44.0109 2.27313L47.3343 5.68136L48.8793 5.29773L47.8875 1.31057L49.1656 0.993211L51.5912 10.7443L48.431 11.5289C47.6913 11.7126 47.0373 11.7413 46.469 11.6151C45.8913 11.4911 45.4227 11.246 45.0632 10.8798C44.7037 10.5135 44.4555 10.0552 44.3186 9.50497C44.1515 8.83345 44.2008 8.19238 44.4665 7.58176C44.7228 6.97347 45.2187 6.48889 45.9541 6.12804L42.48 2.65327L44.0109 2.27313ZM49.1333 6.319L47.2512 6.78633C46.5583 6.95838 46.0804 7.2553 45.8175 7.67708C45.5569 8.1082 45.4973 8.60821 45.6388 9.17714C45.7827 9.7554 46.0673 10.1601 46.4926 10.3911C46.9086 10.6246 47.4677 10.6541 48.17 10.4797L50.0521 10.0124L49.1333 6.319ZM38.0039 8.2902L40.8374 13.9858L42.0162 13.4004L39.1892 7.71774C38.8165 6.96866 38.3549 6.40872 37.8043 6.03792C37.2493 5.68002 36.6549 5.50273 36.0212 5.50605C35.3788 5.51367 34.7381 5.67614 34.099 5.99349C33.46 6.31083 32.9478 6.72086 32.5625 7.22357C32.1686 7.73057 31.9468 8.31312 31.8973 8.97121C31.852 9.63791 32.0157 10.3458 32.3884 11.0949L35.2155 16.7776L36.3943 16.1922L33.5608 10.4966C33.1624 9.69586 33.0655 9.00313 33.27 8.4184C33.4658 7.83797 33.9092 7.37621 34.6001 7.03314C35.2996 6.68577 35.9444 6.60719 36.5344 6.79737C37.1157 6.99185 37.6056 7.48946 38.0039 8.2902ZM40.697 15.4245C40.4946 15.364 40.2984 15.3809 40.1084 15.4752C39.927 15.5653 39.8037 15.7071 39.7384 15.9005C39.6645 16.0983 39.6747 16.2919 39.7689 16.4813C39.8631 16.6707 40.0115 16.7957 40.2139 16.8563C40.412 16.9297 40.6017 16.9214 40.783 16.8313C40.973 16.737 41.1028 16.5866 41.1725 16.3802C41.2378 16.1868 41.2233 15.9953 41.1291 15.8059C41.0348 15.6165 40.8908 15.4893 40.697 15.4245ZM38.5855 16.473C38.3917 16.4082 38.1999 16.423 38.0099 16.5173C37.8199 16.6117 37.6922 16.7556 37.627 16.9491C37.553 17.1468 37.5632 17.3404 37.6574 17.5298C37.7517 17.7193 37.9 17.8442 38.1024 17.9048C38.3005 17.9782 38.4945 17.9678 38.6845 17.8734C38.8745 17.7791 39 17.6309 39.061 17.4288C39.1263 17.2353 39.1118 17.0438 39.0176 16.8544C38.9233 16.665 38.7793 16.5379 38.5855 16.473ZM22.4889 17.1496C22.2047 16.7977 22.0225 16.3882 21.9425 15.9211C21.861 15.4675 21.905 14.9931 22.0747 14.4978C22.2368 14.0086 22.536 13.551 22.9722 13.1252L22.4551 12.485C22.0186 12.8492 21.5906 13.0398 21.1708 13.0568C20.7511 13.0737 20.3961 12.9025 20.1058 12.5431C19.8215 12.1911 19.7223 11.8075 19.8079 11.3923C19.8936 10.9771 20.1389 10.6062 20.5439 10.2797L21.8377 9.23666L22.3729 9.89933L21.2816 10.7791C21.0341 10.9786 20.8844 11.1612 20.8324 11.3268C20.7728 11.4984 20.8156 11.674 20.9608 11.8538C21.0999 12.026 21.2597 12.1011 21.4401 12.0793C21.6131 12.0635 21.8234 11.9558 22.0709 11.7562L22.6334 11.3028L23.6584 12.5719C24.4118 12.0635 25.1632 11.8286 25.9127 11.8672C26.6622 11.9059 27.2826 12.2217 27.7739 12.8147L26.6826 13.6945C26.3488 13.3578 25.9478 13.168 25.4797 13.125C25.0101 13.0956 24.5204 13.2865 24.0103 13.6976C23.5228 14.0907 23.2371 14.5188 23.1531 14.9822C23.0677 15.459 23.1792 15.8884 23.4876 16.2703C23.7295 16.5698 24.0086 16.7466 24.3248 16.8008C24.641 16.855 24.9621 16.831 25.2882 16.7288C25.6144 16.6266 26.0328 16.4623 26.5435 16.236C27.1698 15.9536 27.695 15.7528 28.1188 15.6336C28.5352 15.5205 28.9708 15.5155 29.4256 15.6187C29.8789 15.7353 30.3021 16.037 30.6952 16.5237C31.04 16.9505 31.2366 17.4163 31.2852 17.9211C31.3338 18.426 31.2357 18.9254 30.9908 19.4195C30.7384 19.9197 30.3573 20.3754 29.8473 20.7865C29.1122 21.3791 28.3641 21.6794 27.6027 21.6874C26.8339 21.7014 26.1746 21.4293 25.6247 20.8712L26.7497 19.9642C27.0291 20.2335 27.3983 20.3686 27.8572 20.3695C28.3222 20.3779 28.7834 20.1977 29.2409 19.8288C29.6684 19.4842 29.9265 19.0907 30.015 18.6484C30.1097 18.2136 29.9967 17.7978 29.6762 17.4009C29.4464 17.1164 29.1802 16.9477 28.8775 16.895C28.5674 16.8483 28.2567 16.87 27.9456 16.9601C27.6331 17.0638 27.2146 17.228 26.6904 17.4529C26.058 17.7278 25.5268 17.9211 25.0969 18.0328C24.673 18.152 24.2307 18.1562 23.7698 18.0456C23.315 17.9425 22.888 17.6438 22.4889 17.1496ZM20.3847 29.4806C21.2074 29.1151 21.9615 28.504 22.6468 27.6471L24.6035 25.2005L16.7319 18.9164L14.7752 21.363C14.0899 22.2199 13.6521 23.0835 13.4618 23.9538C13.273 24.8376 13.34 25.6793 13.6628 26.4788C13.9871 27.2919 14.552 28.02 15.3576 28.6632C16.1632 29.3063 16.9987 29.6962 17.864 29.8328C18.7233 29.9769 19.5635 29.8595 20.3847 29.4806ZM14.5665 25.0019C14.4587 24.0415 14.8106 23.0539 15.6222 22.0392L16.7584 20.6186L22.9472 25.5593L21.8111 26.9799C21.0055 27.9872 20.1145 28.5382 19.1381 28.6331C18.1556 28.7355 17.175 28.396 16.1962 27.6146C15.225 26.8393 14.6817 25.9683 14.5665 25.0019ZM17.412 35.211L11.6567 32.4609C10.8476 32.0743 10.1539 31.9826 9.57551 32.1858C8.99299 32.3977 8.53357 32.855 8.19724 33.5575C7.86507 34.2514 7.80131 34.8871 8.00598 35.4644C8.20649 36.0505 8.71131 36.5369 9.52044 36.9235L15.2757 39.6736L14.7089 40.8576L8.96671 38.1137C8.20979 37.752 7.64298 37.2946 7.26629 36.7416C6.8983 36.1928 6.71271 35.5978 6.70954 34.9569C6.70221 34.3245 6.85217 33.6875 7.15943 33.0456C7.4667 32.4038 7.87105 31.8829 8.37249 31.4831C8.86978 31.0919 9.44774 30.8672 10.1064 30.8089C10.7696 30.7634 11.4796 30.9215 12.2366 31.2832L17.9788 34.0271L17.412 35.211ZM17.7587 36.8315C17.8501 36.6407 17.9942 36.5071 18.1912 36.4307C18.384 36.3629 18.5761 36.3748 18.7675 36.4662C18.9589 36.5577 19.0887 36.6997 19.1569 36.8921C19.2297 37.0974 19.2204 37.2955 19.129 37.4863C19.0419 37.6685 18.8975 37.7913 18.696 37.8549C18.4991 37.9313 18.3049 37.9238 18.1135 37.8323C17.9221 37.7409 17.7944 37.5946 17.7303 37.3934C17.6621 37.201 17.6716 37.0137 17.7587 36.8315ZM16.7498 38.9392C16.8411 38.7484 16.9832 38.6191 17.176 38.5514C17.3688 38.4836 17.5609 38.4955 17.7523 38.587C17.9437 38.6784 18.0735 38.8204 18.1417 39.0128C18.2186 39.2095 18.2114 39.4032 18.1201 39.594C18.0287 39.7848 17.8823 39.912 17.6808 39.9756C17.4839 40.052 17.2897 40.0445 17.0983 39.953C16.9069 39.8616 16.7791 39.7153 16.7151 39.5141C16.6469 39.3217 16.6584 39.13 16.7498 38.9392ZM7.05558 45.7553L2.49552 47.1528L2.13937 48.6833L6.82751 47.1823C6.81588 47.9985 7.02385 48.6586 7.45143 49.1624C7.87683 49.6756 8.42786 50.0108 9.10452 50.168C9.65901 50.2968 10.1818 50.2851 10.6729 50.1327C11.1641 49.9804 11.5964 49.6763 11.9699 49.2204C12.3413 48.7739 12.6131 48.1809 12.7851 47.4414L13.5203 44.2823L3.69468 41.9999L3.39734 43.2776L7.415 44.2108L7.05558 45.7553ZM8.00624 46.3314L8.44408 44.4499L12.1657 45.3144L11.7279 47.1958C11.5645 47.8979 11.2838 48.3803 10.8859 48.643C10.4857 48.9151 9.99434 48.9835 9.41166 48.8482C8.83838 48.715 8.41818 48.4349 8.15105 48.0078C7.89332 47.5828 7.84505 47.024 8.00624 46.3314ZM116.093 60C116.093 61.3267 115.013 62.4021 113.68 62.4021C112.348 62.4021 111.268 61.3267 111.268 60C111.268 58.6734 112.348 57.5979 113.68 57.5979C115.013 57.5979 116.093 58.6734 116.093 60ZM7.52591 62.4021C8.85835 62.4021 9.93851 61.3267 9.93851 60C9.93851 58.6734 8.85835 57.5979 7.52591 57.5979C6.19346 57.5979 5.11331 58.6734 5.11331 60C5.11331 61.3267 6.19346 62.4021 7.52591 62.4021Z" fill="#1E1E1E"/>
</svg>
