<svg width="300" height="260" viewBox="0 0 300 260" fill="none" xmlns="http://www.w3.org/2000/svg">
<path d="M108 123H124V173L108 171V123Z" fill="#3DB6E4"/>
<path d="M191 99H175V174L191 171V99Z" fill="#3DB6E4"/>
<path d="M141 69H157V177L141 174V69Z" fill="#3DB6E4"/>
<path d="M108 160H124V173L108 171.027V160Z" fill="#1889C0"/>
<path d="M191 136H175V174L191 171.5V136Z" fill="#1889C0"/>
<path d="M141 99H157V177L141 174.146V99Z" fill="#1889C0"/>
<path fill-rule="evenodd" clip-rule="evenodd" d="M29.5768 172.616C29.789 172.106 30.3743 171.865 30.8842 172.077C59.7499 184.09 127.072 217.953 165.218 257.304C165.602 257.701 165.593 258.334 165.196 258.718C164.799 259.102 164.166 259.093 163.782 258.696C125.928 219.647 58.9168 185.91 30.1157 173.923C29.6059 173.711 29.3645 173.126 29.5768 172.616Z" fill="#5AC065"/>
<path fill-rule="evenodd" clip-rule="evenodd" d="M29.514 172.833C29.6062 172.289 30.1224 171.922 30.6669 172.014C62.2835 177.367 139.683 200.889 196.67 252.257C197.08 252.627 197.113 253.259 196.743 253.67C196.373 254.08 195.741 254.113 195.33 253.743C138.717 202.711 61.7164 179.3 30.333 173.986C29.7885 173.894 29.4218 173.378 29.514 172.833Z" fill="#5AC065"/>
<path fill-rule="evenodd" clip-rule="evenodd" d="M219.906 241.305C139.296 181.845 60.3342 171.683 31.0788 173.997C30.5283 174.04 30.0467 173.629 30.0031 173.079C29.9596 172.528 30.3706 172.047 30.9211 172.003C60.6658 169.65 140.104 179.955 221.094 239.695C221.538 240.023 221.633 240.649 221.305 241.094C220.977 241.538 220.351 241.633 219.906 241.305Z" fill="#5AC065"/>
<path fill-rule="evenodd" clip-rule="evenodd" d="M238.961 226.843C151.587 170.987 64.2759 168.358 31.6701 173.985C31.1258 174.079 30.6085 173.714 30.5145 173.17C30.4206 172.626 30.7857 172.109 31.3299 172.015C64.3907 166.309 152.213 169.013 240.039 225.157C240.504 225.455 240.64 226.073 240.343 226.539C240.045 227.004 239.427 227.14 238.961 226.843Z" fill="#5AC065"/>
<path fill-rule="evenodd" clip-rule="evenodd" d="M255.537 208.886C175.397 167.022 72.5369 168.171 31.1392 173.99C30.5923 174.067 30.0866 173.686 30.0097 173.139C29.9328 172.592 30.3139 172.087 30.8608 172.01C72.463 166.162 175.803 164.978 256.463 207.114C256.952 207.369 257.142 207.973 256.886 208.463C256.631 208.953 256.026 209.142 255.537 208.886Z" fill="#5AC065"/>
<path fill-rule="evenodd" clip-rule="evenodd" d="M270.486 192.836C270.577 193.38 270.209 193.896 269.664 193.986C267.699 194.314 264.542 194.98 261.491 195.907C258.387 196.85 255.58 198.009 254.159 199.253C253.743 199.616 253.111 199.574 252.747 199.159C252.384 198.743 252.426 198.111 252.842 197.747C254.62 196.191 257.813 194.934 260.909 193.993C264.058 193.037 267.301 192.353 269.336 192.014C269.88 191.923 270.396 192.291 270.486 192.836Z" fill="#5AC065"/>
<path fill-rule="evenodd" clip-rule="evenodd" d="M274.496 183.907C274.547 184.457 274.143 184.944 273.593 184.996C266.45 185.66 249.566 188.282 238.934 193.401C238.436 193.641 237.839 193.431 237.599 192.934C237.359 192.436 237.569 191.839 238.066 191.599C249.034 186.318 266.217 183.673 273.407 183.004C273.957 182.953 274.445 183.357 274.496 183.907Z" fill="#5AC065"/>
<path fill-rule="evenodd" clip-rule="evenodd" d="M250.511 177.91C260.718 176.478 270.289 176 276 176C276.552 176 277 176.448 277 177C277 177.552 276.552 178 276 178C270.378 178 260.899 178.472 250.789 179.89C240.664 181.311 229.987 183.669 221.92 187.407C221.419 187.64 220.825 187.422 220.593 186.92C220.36 186.419 220.578 185.825 221.08 185.593C229.413 181.731 240.319 179.339 250.511 177.91Z" fill="#5AC065"/>
<path fill-rule="evenodd" clip-rule="evenodd" d="M197.27 178.527C232.982 170.1 265.988 169.995 278.083 171.003C278.633 171.049 279.042 171.533 278.997 172.083C278.951 172.633 278.467 173.042 277.917 172.996C266.012 172.004 233.218 172.1 197.73 180.473C197.192 180.6 196.654 180.267 196.527 179.73C196.4 179.192 196.733 178.653 197.27 178.527Z" fill="#5AC065"/>
<path fill-rule="evenodd" clip-rule="evenodd" d="M168.362 173.51C217.227 166.7 262.488 166.332 279.04 167.001C279.592 167.023 280.021 167.489 279.999 168.04C279.977 168.592 279.511 169.021 278.96 168.999C262.512 168.335 217.373 168.7 168.638 175.49C168.091 175.567 167.586 175.185 167.51 174.638C167.433 174.091 167.815 173.586 168.362 173.51Z" fill="#5AC065"/>
<path fill-rule="evenodd" clip-rule="evenodd" d="M263.143 163.144C265.324 162.174 267 156.277 267 147.857C267 138.626 263.786 127.929 262.5 126C261.214 127.929 258 138.626 258 147.857C258 156.277 259.676 162.174 261.857 163.144V167.143H263.143V163.144Z" fill="#1889C0"/>
<path fill-rule="evenodd" clip-rule="evenodd" d="M251.893 164.894C253.12 164.348 254.062 161.031 254.062 156.295C254.062 151.102 252.254 145.085 251.531 144C250.808 145.085 249 151.102 249 156.295C249 161.031 249.943 164.348 251.17 164.894V167.143H251.893V164.894Z" fill="#3DB6E4"/>
<path d="M110.948 112H104.518V109.651C104.518 109.531 104.531 109.404 104.557 109.271C104.586 109.134 104.63 108.999 104.688 108.865C104.747 108.732 104.822 108.605 104.913 108.484C105.007 108.364 105.12 108.258 105.25 108.167C105.383 108.073 105.536 107.998 105.709 107.942C105.882 107.887 106.077 107.859 106.295 107.859H109.156C109.329 107.859 109.456 107.817 109.537 107.732C109.622 107.645 109.664 107.518 109.664 107.352V106.79C109.664 106.618 109.622 106.487 109.537 106.399C109.452 106.312 109.329 106.268 109.166 106.268H105.089V104.998H109.166C109.381 104.998 109.575 105.026 109.747 105.081C109.92 105.136 110.071 105.211 110.201 105.306C110.335 105.397 110.449 105.503 110.543 105.623C110.637 105.743 110.714 105.87 110.772 106.004C110.834 106.134 110.878 106.268 110.904 106.404C110.934 106.538 110.948 106.663 110.948 106.78V107.352C110.948 107.68 110.888 107.959 110.768 108.187C110.65 108.411 110.502 108.595 110.323 108.738C110.144 108.878 109.951 108.981 109.742 109.046C109.537 109.108 109.345 109.139 109.166 109.139H106.295C106.191 109.139 106.108 109.153 106.046 109.183C105.984 109.212 105.935 109.251 105.899 109.3C105.867 109.349 105.842 109.404 105.826 109.466C105.81 109.528 105.797 109.59 105.787 109.651V110.73H110.948V112ZM118.585 110.218C118.585 110.338 118.57 110.465 118.541 110.599C118.515 110.732 118.471 110.866 118.409 110.999C118.351 111.129 118.274 111.255 118.18 111.375C118.089 111.495 117.976 111.603 117.843 111.697C117.713 111.788 117.561 111.862 117.389 111.917C117.216 111.972 117.022 112 116.808 112H112.154V110.73H116.808C116.967 110.73 117.089 110.682 117.174 110.584C117.262 110.486 117.306 110.364 117.306 110.218V109.651C117.306 109.485 117.263 109.358 117.179 109.271C117.094 109.183 116.967 109.139 116.798 109.139H113.937C113.608 109.139 113.329 109.08 113.102 108.963C112.877 108.842 112.695 108.693 112.555 108.514C112.415 108.335 112.312 108.141 112.247 107.933C112.185 107.724 112.154 107.531 112.154 107.352V104.998H118.004V106.268H113.424V107.352C113.424 107.521 113.468 107.648 113.556 107.732C113.644 107.817 113.771 107.859 113.937 107.859H116.808C116.983 107.859 117.175 107.892 117.384 107.957C117.592 108.019 117.784 108.121 117.96 108.265C118.139 108.405 118.287 108.589 118.404 108.816C118.525 109.044 118.585 109.323 118.585 109.651V110.218ZM127.315 110.218C127.315 110.446 127.271 110.66 127.184 110.862C127.099 111.061 126.982 111.235 126.832 111.385C126.682 111.535 126.507 111.653 126.305 111.741C126.106 111.826 125.893 111.868 125.665 111.868C125.434 111.868 125.217 111.826 125.016 111.741C124.817 111.653 124.641 111.535 124.488 111.385C124.339 111.235 124.22 111.061 124.132 110.862C124.047 110.66 124.005 110.446 124.005 110.218C124.005 109.99 124.047 109.777 124.132 109.578C124.22 109.376 124.339 109.201 124.488 109.051C124.641 108.898 124.817 108.777 125.016 108.689C125.217 108.602 125.434 108.558 125.665 108.558C125.893 108.558 126.106 108.602 126.305 108.689C126.507 108.777 126.682 108.898 126.832 109.051C126.982 109.201 127.099 109.376 127.184 109.578C127.271 109.777 127.315 109.99 127.315 110.218ZM125.714 105.638L122.115 111.941H120.943L124.547 105.638H125.714ZM122.735 107.352C122.735 107.583 122.691 107.799 122.604 108.001C122.519 108.2 122.4 108.375 122.247 108.528C122.097 108.678 121.922 108.797 121.72 108.885C121.518 108.969 121.303 109.012 121.075 109.012C120.847 109.012 120.632 108.969 120.431 108.885C120.232 108.797 120.058 108.678 119.908 108.528C119.758 108.375 119.64 108.2 119.552 108.001C119.467 107.799 119.425 107.583 119.425 107.352C119.425 107.124 119.467 106.91 119.552 106.712C119.64 106.51 119.758 106.334 119.908 106.185C120.058 106.035 120.232 105.918 120.431 105.833C120.632 105.745 120.847 105.701 121.075 105.701C121.303 105.701 121.518 105.745 121.72 105.833C121.922 105.918 122.097 106.035 122.247 106.185C122.4 106.334 122.519 106.51 122.604 106.712C122.691 106.91 122.735 107.124 122.735 107.352ZM126.295 110.218C126.295 110.13 126.279 110.049 126.246 109.974C126.214 109.896 126.168 109.827 126.109 109.769C126.054 109.71 125.987 109.664 125.909 109.632C125.834 109.596 125.753 109.578 125.665 109.578C125.577 109.578 125.494 109.596 125.416 109.632C125.338 109.664 125.27 109.71 125.211 109.769C125.156 109.827 125.11 109.896 125.074 109.974C125.042 110.049 125.025 110.13 125.025 110.218C125.025 110.306 125.042 110.389 125.074 110.467C125.11 110.542 125.156 110.608 125.211 110.667C125.27 110.722 125.338 110.766 125.416 110.799C125.494 110.831 125.577 110.848 125.665 110.848C125.753 110.848 125.834 110.831 125.909 110.799C125.987 110.766 126.054 110.722 126.109 110.667C126.168 110.608 126.214 110.542 126.246 110.467C126.279 110.389 126.295 110.306 126.295 110.218ZM121.715 107.352C121.715 107.264 121.699 107.182 121.666 107.107C121.633 107.029 121.588 106.963 121.529 106.907C121.474 106.849 121.407 106.803 121.329 106.771C121.251 106.738 121.166 106.722 121.075 106.722C120.987 106.722 120.904 106.738 120.826 106.771C120.751 106.803 120.685 106.849 120.626 106.907C120.571 106.963 120.527 107.029 120.494 107.107C120.462 107.182 120.445 107.264 120.445 107.352C120.445 107.439 120.462 107.522 120.494 107.601C120.527 107.679 120.571 107.747 120.626 107.806C120.685 107.864 120.751 107.91 120.826 107.942C120.904 107.975 120.987 107.991 121.075 107.991C121.166 107.991 121.251 107.975 121.329 107.942C121.407 107.91 121.474 107.864 121.529 107.806C121.588 107.747 121.633 107.679 121.666 107.601C121.699 107.522 121.715 107.439 121.715 107.352Z" fill="#1889C0"/>
<path d="M177.056 86.2178C177.056 86.3382 177.041 86.4652 177.012 86.5986C176.986 86.7321 176.942 86.8656 176.88 86.999C176.821 87.1292 176.745 87.2546 176.65 87.375C176.559 87.4954 176.447 87.6029 176.313 87.6973C176.183 87.7884 176.032 87.8617 175.859 87.917C175.687 87.9723 175.493 88 175.278 88H170.625V86.7305H175.278C175.438 86.7305 175.56 86.6816 175.645 86.584C175.732 86.4863 175.776 86.3643 175.776 86.2178V85.6514C175.776 85.4854 175.734 85.3584 175.649 85.2705C175.565 85.1826 175.438 85.1387 175.269 85.1387H172.407C172.078 85.1387 171.8 85.0801 171.572 84.9629C171.348 84.8424 171.165 84.6927 171.025 84.5137C170.885 84.3346 170.783 84.141 170.718 83.9326C170.656 83.7243 170.625 83.5306 170.625 83.3516V80.998H176.475V82.2676H171.895V83.3516C171.895 83.5208 171.938 83.6478 172.026 83.7324C172.114 83.8171 172.241 83.8594 172.407 83.8594H175.278C175.454 83.8594 175.646 83.8919 175.854 83.957C176.063 84.0189 176.255 84.1214 176.431 84.2646C176.61 84.4046 176.758 84.5885 176.875 84.8164C176.995 85.0443 177.056 85.3226 177.056 85.6514V86.2178ZM186.216 85.0703C186.216 85.3568 186.178 85.6286 186.104 85.8857C186.032 86.1396 185.929 86.3757 185.796 86.5938C185.662 86.8118 185.505 87.0072 185.322 87.1797C185.14 87.3522 184.94 87.5003 184.722 87.624C184.507 87.7445 184.277 87.8372 184.033 87.9023C183.789 87.9674 183.54 88 183.286 88H180.996C180.739 88 180.488 87.9674 180.244 87.9023C180 87.8372 179.769 87.7445 179.551 87.624C179.336 87.5003 179.137 87.3522 178.955 87.1797C178.773 87.0072 178.615 86.8118 178.481 86.5938C178.351 86.3757 178.249 86.1396 178.174 85.8857C178.102 85.6286 178.066 85.3568 178.066 85.0703V83.9277C178.066 83.498 178.146 83.1042 178.306 82.7461C178.468 82.388 178.685 82.0804 178.955 81.8232C179.225 81.5628 179.536 81.361 179.888 81.2178C180.243 81.0713 180.612 80.998 180.996 80.998H183.286C183.54 80.998 183.789 81.0306 184.033 81.0957C184.277 81.1608 184.507 81.2552 184.722 81.3789C184.94 81.4993 185.14 81.6458 185.322 81.8184C185.505 81.9909 185.662 82.1862 185.796 82.4043C185.929 82.6224 186.032 82.86 186.104 83.1172C186.178 83.3711 186.216 83.6413 186.216 83.9277V85.0703ZM184.937 83.9277C184.937 83.6771 184.891 83.4492 184.8 83.2441C184.709 83.0391 184.587 82.8633 184.434 82.7168C184.284 82.5703 184.11 82.458 183.911 82.3799C183.713 82.3018 183.504 82.2643 183.286 82.2676H180.996C180.785 82.2643 180.578 82.3018 180.376 82.3799C180.177 82.4548 180 82.5654 179.844 82.7119C179.691 82.8551 179.567 83.0309 179.473 83.2393C179.382 83.4443 179.336 83.6738 179.336 83.9277V85.0703C179.336 85.3242 179.382 85.5537 179.473 85.7588C179.564 85.9639 179.686 86.1396 179.839 86.2861C179.992 86.4294 180.168 86.54 180.366 86.6182C180.568 86.6963 180.778 86.7337 180.996 86.7305H183.286C183.537 86.7305 183.763 86.6898 183.965 86.6084C184.17 86.5238 184.344 86.4082 184.487 86.2617C184.631 86.1152 184.741 85.9411 184.819 85.7393C184.897 85.5342 184.937 85.3112 184.937 85.0703V83.9277ZM184.385 83C184.434 83.0716 184.466 83.1497 184.482 83.2344C184.499 83.3158 184.499 83.3971 184.482 83.4785C184.466 83.5566 184.434 83.6315 184.385 83.7031C184.339 83.7715 184.279 83.8301 184.204 83.8789L180.776 86.1689C180.721 86.2113 180.664 86.2406 180.605 86.2568C180.547 86.2731 180.487 86.2812 180.425 86.2812C180.321 86.2812 180.221 86.2568 180.127 86.208C180.033 86.1592 179.956 86.0892 179.897 85.998C179.849 85.9264 179.816 85.8499 179.8 85.7686C179.784 85.6839 179.782 85.6025 179.795 85.5244C179.811 85.443 179.842 85.3682 179.888 85.2998C179.933 85.2282 179.993 85.168 180.068 85.1191L183.506 82.8291C183.577 82.7803 183.654 82.7477 183.735 82.7314C183.82 82.7152 183.901 82.7152 183.979 82.7314C184.061 82.7477 184.136 82.7786 184.204 82.8242C184.276 82.8698 184.336 82.9284 184.385 83ZM195.044 86.2178C195.044 86.4456 195 86.6605 194.912 86.8623C194.827 87.0609 194.71 87.235 194.561 87.3848C194.411 87.5345 194.235 87.6533 194.033 87.7412C193.835 87.8258 193.621 87.8682 193.394 87.8682C193.162 87.8682 192.946 87.8258 192.744 87.7412C192.546 87.6533 192.37 87.5345 192.217 87.3848C192.067 87.235 191.948 87.0609 191.86 86.8623C191.776 86.6605 191.733 86.4456 191.733 86.2178C191.733 85.9899 191.776 85.7767 191.86 85.5781C191.948 85.3763 192.067 85.2005 192.217 85.0508C192.37 84.8978 192.546 84.7773 192.744 84.6895C192.946 84.6016 193.162 84.5576 193.394 84.5576C193.621 84.5576 193.835 84.6016 194.033 84.6895C194.235 84.7773 194.411 84.8978 194.561 85.0508C194.71 85.2005 194.827 85.3763 194.912 85.5781C195 85.7767 195.044 85.9899 195.044 86.2178ZM193.442 81.6377L189.844 87.9414H188.672L192.275 81.6377H193.442ZM190.464 83.3516C190.464 83.5827 190.42 83.7992 190.332 84.001C190.247 84.1995 190.129 84.3753 189.976 84.5283C189.826 84.6781 189.65 84.7969 189.448 84.8848C189.246 84.9694 189.032 85.0117 188.804 85.0117C188.576 85.0117 188.361 84.9694 188.159 84.8848C187.961 84.7969 187.786 84.6781 187.637 84.5283C187.487 84.3753 187.368 84.1995 187.28 84.001C187.196 83.7992 187.153 83.5827 187.153 83.3516C187.153 83.1237 187.196 82.9105 187.28 82.7119C187.368 82.5101 187.487 82.3343 187.637 82.1846C187.786 82.0348 187.961 81.9176 188.159 81.833C188.361 81.7451 188.576 81.7012 188.804 81.7012C189.032 81.7012 189.246 81.7451 189.448 81.833C189.65 81.9176 189.826 82.0348 189.976 82.1846C190.129 82.3343 190.247 82.5101 190.332 82.7119C190.42 82.9105 190.464 83.1237 190.464 83.3516ZM194.023 86.2178C194.023 86.1299 194.007 86.0485 193.975 85.9736C193.942 85.8955 193.896 85.8271 193.838 85.7686C193.783 85.71 193.716 85.6644 193.638 85.6318C193.563 85.596 193.481 85.5781 193.394 85.5781C193.306 85.5781 193.223 85.596 193.145 85.6318C193.066 85.6644 192.998 85.71 192.939 85.7686C192.884 85.8271 192.839 85.8955 192.803 85.9736C192.77 86.0485 192.754 86.1299 192.754 86.2178C192.754 86.3057 192.77 86.3887 192.803 86.4668C192.839 86.5417 192.884 86.6084 192.939 86.667C192.998 86.7223 193.066 86.7663 193.145 86.7988C193.223 86.8314 193.306 86.8477 193.394 86.8477C193.481 86.8477 193.563 86.8314 193.638 86.7988C193.716 86.7663 193.783 86.7223 193.838 86.667C193.896 86.6084 193.942 86.5417 193.975 86.4668C194.007 86.3887 194.023 86.3057 194.023 86.2178ZM189.443 83.3516C189.443 83.2637 189.427 83.1823 189.395 83.1074C189.362 83.0293 189.316 82.9626 189.258 82.9072C189.202 82.8486 189.136 82.8031 189.058 82.7705C188.979 82.738 188.895 82.7217 188.804 82.7217C188.716 82.7217 188.633 82.738 188.555 82.7705C188.48 82.8031 188.413 82.8486 188.354 82.9072C188.299 82.9626 188.255 83.0293 188.223 83.1074C188.19 83.1823 188.174 83.2637 188.174 83.3516C188.174 83.4395 188.19 83.5225 188.223 83.6006C188.255 83.6787 188.299 83.7471 188.354 83.8057C188.413 83.8643 188.48 83.9098 188.555 83.9424C188.633 83.9749 188.716 83.9912 188.804 83.9912C188.895 83.9912 188.979 83.9749 189.058 83.9424C189.136 83.9098 189.202 83.8643 189.258 83.8057C189.316 83.7471 189.362 83.6787 189.395 83.6006C189.427 83.5225 189.443 83.4395 189.443 83.3516Z" fill="#1889C0"/>
<path d="M144.099 51.3203C144.154 51.4212 144.182 51.5286 144.182 51.6426C144.182 51.7533 144.154 51.859 144.099 51.96L140.578 58H139.108L142.438 52.2676H138.327V50.998H143.547C143.661 50.998 143.767 51.0273 143.864 51.0859C143.965 51.1413 144.043 51.2194 144.099 51.3203ZM151.472 56.2178C151.472 56.3382 151.457 56.4652 151.428 56.5986C151.402 56.7321 151.358 56.8656 151.296 56.999C151.237 57.1292 151.161 57.2546 151.066 57.375C150.975 57.4954 150.863 57.6029 150.729 57.6973C150.599 57.7884 150.448 57.8617 150.275 57.917C150.103 57.9723 149.909 58 149.694 58H145.041V56.7305H149.694C149.854 56.7305 149.976 56.6816 150.061 56.584C150.148 56.4863 150.192 56.3643 150.192 56.2178V55.6514C150.192 55.4854 150.15 55.3584 150.065 55.2705C149.981 55.1826 149.854 55.1387 149.685 55.1387H146.823C146.494 55.1387 146.216 55.0801 145.988 54.9629C145.764 54.8424 145.581 54.6927 145.441 54.5137C145.301 54.3346 145.199 54.141 145.134 53.9326C145.072 53.7243 145.041 53.5306 145.041 53.3516V50.998H150.891V52.2676H146.311V53.3516C146.311 53.5208 146.354 53.6478 146.442 53.7324C146.53 53.8171 146.657 53.8594 146.823 53.8594H149.694C149.87 53.8594 150.062 53.8919 150.271 53.957C150.479 54.0189 150.671 54.1214 150.847 54.2646C151.026 54.4046 151.174 54.5885 151.291 54.8164C151.411 55.0443 151.472 55.3226 151.472 55.6514V56.2178ZM160.202 56.2178C160.202 56.4456 160.158 56.6605 160.07 56.8623C159.986 57.0609 159.868 57.235 159.719 57.3848C159.569 57.5345 159.393 57.6533 159.191 57.7412C158.993 57.8258 158.78 57.8682 158.552 57.8682C158.321 57.8682 158.104 57.8258 157.902 57.7412C157.704 57.6533 157.528 57.5345 157.375 57.3848C157.225 57.235 157.106 57.0609 157.019 56.8623C156.934 56.6605 156.892 56.4456 156.892 56.2178C156.892 55.9899 156.934 55.7767 157.019 55.5781C157.106 55.3763 157.225 55.2005 157.375 55.0508C157.528 54.8978 157.704 54.7773 157.902 54.6895C158.104 54.6016 158.321 54.5576 158.552 54.5576C158.78 54.5576 158.993 54.6016 159.191 54.6895C159.393 54.7773 159.569 54.8978 159.719 55.0508C159.868 55.2005 159.986 55.3763 160.07 55.5781C160.158 55.7767 160.202 55.9899 160.202 56.2178ZM158.601 51.6377L155.002 57.9414H153.83L157.434 51.6377H158.601ZM155.622 53.3516C155.622 53.5827 155.578 53.7992 155.49 54.001C155.406 54.1995 155.287 54.3753 155.134 54.5283C154.984 54.6781 154.808 54.7969 154.606 54.8848C154.405 54.9694 154.19 55.0117 153.962 55.0117C153.734 55.0117 153.519 54.9694 153.317 54.8848C153.119 54.7969 152.945 54.6781 152.795 54.5283C152.645 54.3753 152.526 54.1995 152.438 54.001C152.354 53.7992 152.312 53.5827 152.312 53.3516C152.312 53.1237 152.354 52.9105 152.438 52.7119C152.526 52.5101 152.645 52.3343 152.795 52.1846C152.945 52.0348 153.119 51.9176 153.317 51.833C153.519 51.7451 153.734 51.7012 153.962 51.7012C154.19 51.7012 154.405 51.7451 154.606 51.833C154.808 51.9176 154.984 52.0348 155.134 52.1846C155.287 52.3343 155.406 52.5101 155.49 52.7119C155.578 52.9105 155.622 53.1237 155.622 53.3516ZM159.182 56.2178C159.182 56.1299 159.165 56.0485 159.133 55.9736C159.1 55.8955 159.055 55.8271 158.996 55.7686C158.941 55.71 158.874 55.6644 158.796 55.6318C158.721 55.596 158.64 55.5781 158.552 55.5781C158.464 55.5781 158.381 55.596 158.303 55.6318C158.225 55.6644 158.156 55.71 158.098 55.7686C158.042 55.8271 157.997 55.8955 157.961 55.9736C157.928 56.0485 157.912 56.1299 157.912 56.2178C157.912 56.3057 157.928 56.3887 157.961 56.4668C157.997 56.5417 158.042 56.6084 158.098 56.667C158.156 56.7223 158.225 56.7663 158.303 56.7988C158.381 56.8314 158.464 56.8477 158.552 56.8477C158.64 56.8477 158.721 56.8314 158.796 56.7988C158.874 56.7663 158.941 56.7223 158.996 56.667C159.055 56.6084 159.1 56.5417 159.133 56.4668C159.165 56.3887 159.182 56.3057 159.182 56.2178ZM154.602 53.3516C154.602 53.2637 154.585 53.1823 154.553 53.1074C154.52 53.0293 154.475 52.9626 154.416 52.9072C154.361 52.8486 154.294 52.8031 154.216 52.7705C154.138 52.738 154.053 52.7217 153.962 52.7217C153.874 52.7217 153.791 52.738 153.713 52.7705C153.638 52.8031 153.571 52.8486 153.513 52.9072C153.457 52.9626 153.413 53.0293 153.381 53.1074C153.348 53.1823 153.332 53.2637 153.332 53.3516C153.332 53.4395 153.348 53.5225 153.381 53.6006C153.413 53.6787 153.457 53.7471 153.513 53.8057C153.571 53.8643 153.638 53.9098 153.713 53.9424C153.791 53.9749 153.874 53.9912 153.962 53.9912C154.053 53.9912 154.138 53.9749 154.216 53.9424C154.294 53.9098 154.361 53.8643 154.416 53.8057C154.475 53.7471 154.52 53.6787 154.553 53.6006C154.585 53.5225 154.602 53.4395 154.602 53.3516Z" fill="#1889C0"/>
<path d="M162 210.3C162 216.762 156.851 222 150.5 222C144.149 222 139 216.762 139 210.3C139 201.888 150.5 183 150.5 183C150.5 183 162 201.888 162 210.3Z" fill="#3DB6E4" stroke="#EBEBEB" stroke-width="3" stroke-linecap="round" stroke-linejoin="round"/>
</svg>
