<svg width="300" height="260" viewBox="0 0 300 260" fill="none" xmlns="http://www.w3.org/2000/svg">
<path fill-rule="evenodd" clip-rule="evenodd" d="M29.5768 172.616C29.789 172.106 30.3744 171.865 30.8843 172.077C59.7499 184.09 127.072 217.953 165.218 257.304C165.602 257.701 165.593 258.334 165.196 258.718C164.799 259.102 164.166 259.093 163.782 258.696C125.928 219.647 58.9168 185.91 30.1158 173.923C29.6059 173.711 29.3646 173.126 29.5768 172.616Z" fill="#5AC065"/>
<path fill-rule="evenodd" clip-rule="evenodd" d="M29.5141 172.833C29.6063 172.289 30.1224 171.922 30.667 172.014C62.2836 177.367 139.683 200.889 196.67 252.257C197.08 252.627 197.113 253.259 196.743 253.67C196.373 254.08 195.741 254.113 195.33 253.743C138.717 202.711 61.7165 179.3 30.3331 173.986C29.7886 173.894 29.4219 173.378 29.5141 172.833Z" fill="#5AC065"/>
<path fill-rule="evenodd" clip-rule="evenodd" d="M219.906 241.305C139.296 181.845 60.3342 171.683 31.0788 173.997C30.5283 174.04 30.0467 173.629 30.0031 173.079C29.9596 172.528 30.3706 172.047 30.9211 172.003C60.6658 169.65 140.104 179.955 221.094 239.695C221.538 240.023 221.633 240.649 221.305 241.094C220.977 241.538 220.351 241.633 219.906 241.305Z" fill="#5AC065"/>
<path fill-rule="evenodd" clip-rule="evenodd" d="M238.961 226.843C151.587 170.987 64.276 168.358 31.6701 173.985C31.1259 174.079 30.6085 173.714 30.5146 173.17C30.4207 172.626 30.7857 172.109 31.33 172.015C64.3908 166.309 152.213 169.013 240.039 225.157C240.504 225.455 240.64 226.073 240.343 226.539C240.045 227.004 239.427 227.14 238.961 226.843Z" fill="#5AC065"/>
<path fill-rule="evenodd" clip-rule="evenodd" d="M255.537 208.886C175.397 167.022 72.5369 168.171 31.1392 173.99C30.5923 174.067 30.0866 173.686 30.0097 173.139C29.9329 172.592 30.3139 172.087 30.8608 172.01C72.4631 166.162 175.803 164.978 256.463 207.114C256.953 207.369 257.142 207.973 256.886 208.463C256.631 208.953 256.027 209.142 255.537 208.886Z" fill="#5AC065"/>
<path fill-rule="evenodd" clip-rule="evenodd" d="M270.486 192.836C270.577 193.38 270.209 193.896 269.664 193.986C267.699 194.314 264.542 194.98 261.491 195.907C258.387 196.85 255.58 198.009 254.159 199.253C253.743 199.616 253.111 199.574 252.747 199.159C252.384 198.743 252.426 198.111 252.842 197.747C254.62 196.191 257.813 194.934 260.909 193.993C264.058 193.037 267.301 192.353 269.336 192.014C269.88 191.923 270.396 192.291 270.486 192.836Z" fill="#5AC065"/>
<path fill-rule="evenodd" clip-rule="evenodd" d="M274.496 183.907C274.547 184.457 274.143 184.944 273.593 184.996C266.45 185.66 249.566 188.282 238.934 193.401C238.436 193.641 237.839 193.431 237.599 192.934C237.359 192.436 237.569 191.839 238.066 191.599C249.034 186.318 266.217 183.673 273.407 183.004C273.957 182.953 274.445 183.357 274.496 183.907Z" fill="#5AC065"/>
<path fill-rule="evenodd" clip-rule="evenodd" d="M250.511 177.91C260.718 176.478 270.289 176 276 176C276.552 176 277 176.448 277 177C277 177.552 276.552 178 276 178C270.378 178 260.899 178.472 250.789 179.89C240.664 181.311 229.987 183.669 221.92 187.407C221.419 187.64 220.825 187.422 220.593 186.92C220.36 186.419 220.578 185.825 221.08 185.593C229.413 181.731 240.319 179.339 250.511 177.91Z" fill="#5AC065"/>
<path fill-rule="evenodd" clip-rule="evenodd" d="M197.27 178.527C232.982 170.1 265.988 169.995 278.083 171.003C278.633 171.049 279.042 171.533 278.997 172.083C278.951 172.633 278.467 173.042 277.917 172.996C266.012 172.004 233.218 172.1 197.73 180.473C197.192 180.6 196.654 180.267 196.527 179.73C196.4 179.192 196.733 178.653 197.27 178.527Z" fill="#5AC065"/>
<path fill-rule="evenodd" clip-rule="evenodd" d="M168.362 173.51C217.227 166.7 262.488 166.332 279.04 167.001C279.592 167.023 280.021 167.489 279.999 168.04C279.977 168.592 279.511 169.021 278.96 168.999C262.512 168.335 217.373 168.7 168.638 175.49C168.091 175.567 167.586 175.185 167.51 174.638C167.433 174.091 167.815 173.586 168.362 173.51Z" fill="#5AC065"/>
<path fill-rule="evenodd" clip-rule="evenodd" d="M227 75C227 74.4477 227.448 74 228 74H257C257.552 74 258 74.4477 258 75C258 75.5523 257.552 76 257 76H228C227.448 76 227 75.5523 227 75Z" fill="#3DB6E4"/>
<path fill-rule="evenodd" clip-rule="evenodd" d="M242 58C242 57.4477 242.448 57 243 57L265 57C265.552 57 266 57.4477 266 58C266 58.5523 265.552 59 265 59L243 59C242.448 59 242 58.5523 242 58Z" fill="#3DB6E4"/>
<path fill-rule="evenodd" clip-rule="evenodd" d="M229 58C229 57.4477 229.448 57 230 57L238 57C238.552 57 239 57.4477 239 58C239 58.5523 238.552 59 238 59L230 59C229.448 59 229 58.5523 229 58Z" fill="#3DB6E4"/>
<path fill-rule="evenodd" clip-rule="evenodd" d="M240.25 67C240.25 66.5858 240.586 66.25 241 66.25H270C270.414 66.25 270.75 66.5858 270.75 67C270.75 67.4142 270.414 67.75 270 67.75H241C240.586 67.75 240.25 67.4142 240.25 67Z" fill="#3DB6E4"/>
<path fill-rule="evenodd" clip-rule="evenodd" d="M227.25 67C227.25 66.5858 227.586 66.25 228 66.25H236C236.414 66.25 236.75 66.5858 236.75 67C236.75 67.4142 236.414 67.75 236 67.75H228C227.586 67.75 227.25 67.4142 227.25 67Z" fill="#3DB6E4"/>
<path fill-rule="evenodd" clip-rule="evenodd" d="M216 75C216 74.4477 216.448 74 217 74H222C222.552 74 223 74.4477 223 75C223 75.5523 222.552 76 222 76H217C216.448 76 216 75.5523 216 75Z" fill="#3DB6E4"/>
<path fill-rule="evenodd" clip-rule="evenodd" d="M96.5132 36.0982C95.7297 32.802 93.8409 30.5468 91.4539 29.265C88.9304 27.9099 85.9228 27.6792 83.2058 28.3323C80.4908 28.9848 77.9685 30.5444 76.471 32.8926C75.1281 34.9985 74.6657 37.6527 75.5262 40.658C72.0595 41.3712 70.23 44.1087 70.23 46.904C70.23 50.0052 72.4819 53.0354 76.7231 53.3088C76.7446 53.3102 76.766 53.3109 76.7875 53.3109H94.3433C96.7015 53.326 98.9877 52.5294 100.744 51.058C103.705 48.6894 104.385 45.1113 103.366 42.0567C102.414 39.2002 99.9703 36.7633 96.5132 36.0982ZM77.5822 40.5385C76.6877 37.847 77.09 35.6417 78.1573 33.968C79.3243 32.138 81.3591 30.8331 83.6732 30.2769C85.9852 29.7212 88.4786 29.9374 90.5077 31.027C92.5072 32.1007 94.1281 34.0584 94.6928 37.1597C94.7717 37.5926 95.1242 37.9231 95.5613 37.9739C98.579 38.3243 100.681 40.3264 101.469 42.6892C102.255 45.0453 101.726 47.7162 99.4864 49.5024C99.4798 49.5077 99.4732 49.5131 99.4666 49.5186C98.0896 50.6759 96.2646 51.3238 94.3534 51.3109L76.8207 51.3109C73.6735 51.0946 72.23 48.964 72.23 46.904C72.23 44.8443 73.6731 42.714 76.8194 42.4972C77.6173 42.5017 78.3953 42.6742 79.0886 42.9972C79.5892 43.2303 80.1841 43.0135 80.4173 42.5129C80.6505 42.0122 80.4337 41.4173 79.933 41.1842C79.1952 40.8405 78.3985 40.6238 77.5822 40.5385Z" fill="#3DB6E4"/>
<path fill-rule="evenodd" clip-rule="evenodd" d="M97.2398 37.0003C97.2529 37.8287 96.592 38.5107 95.7636 38.5238C95.0496 38.5351 94.3516 38.6927 93.7195 38.9817C92.966 39.3262 92.076 38.9946 91.7316 38.2412C91.3872 37.4877 91.7188 36.5977 92.4722 36.2533C93.4867 35.7895 94.5938 35.5419 95.7163 35.5242C96.5447 35.5111 97.2267 36.172 97.2398 37.0003Z" fill="#3DB6E4"/>
<path fill-rule="evenodd" clip-rule="evenodd" d="M21 106C21 105.448 21.4477 105 22 105H49C49.5523 105 50 105.448 50 106C50 106.552 49.5523 107 49 107H22C21.4477 107 21 106.552 21 106Z" fill="#3DB6E4"/>
<path fill-rule="evenodd" clip-rule="evenodd" d="M23 95C23 94.4477 23.4477 94 24 94L58 94C58.5523 94 59 94.4477 59 95C59 95.5523 58.5523 96 58 96L24 96C23.4477 96 23 95.5523 23 95Z" fill="#3DB6E4"/>
<path fill-rule="evenodd" clip-rule="evenodd" d="M53 106C53 105.448 53.4477 105 54 105H63C63.5523 105 64 105.448 64 106C64 106.552 63.5523 107 63 107H54C53.4477 107 53 106.552 53 106Z" fill="#3DB6E4"/>
<path fill-rule="evenodd" clip-rule="evenodd" d="M62 95C62 94.4477 62.4477 94 63 94H68C68.5523 94 69 94.4477 69 95C69 95.5523 68.5523 96 68 96H63C62.4477 96 62 95.5523 62 95Z" fill="#3DB6E4"/>
<path d="M149.363 104.518C148.924 104.518 148.586 104.381 148.349 104.106C148.113 103.797 147.995 103.384 147.995 102.869C147.995 101.667 148.13 100.55 148.4 99.5195C148.704 98.4545 149.16 97.3723 149.768 96.273C150.409 95.1736 151.271 93.9884 152.351 92.7173C153.195 91.6866 153.871 90.7762 154.377 89.9861C154.884 89.1959 155.238 88.4401 155.441 87.7187C155.677 86.9629 155.796 86.2071 155.796 85.4513C155.796 84.0084 155.289 82.8747 154.276 82.0501C153.263 81.1913 151.861 80.7618 150.072 80.7618C148.518 80.7618 147.083 81.0023 145.766 81.4833C144.483 81.9299 143.233 82.617 142.018 83.5446C141.511 83.8881 141.038 84.0599 140.599 84.0599C140.194 84.0599 139.856 83.9396 139.586 83.6992C139.316 83.4587 139.13 83.1495 139.029 82.7716C138.961 82.3937 139.012 81.9986 139.181 81.5864C139.384 81.1741 139.721 80.7962 140.194 80.4526C141.511 79.3877 143.064 78.546 144.854 77.9276C146.644 77.3092 148.451 77 150.274 77C152.199 77 153.888 77.3435 155.34 78.0306C156.826 78.6834 157.974 79.6281 158.784 80.8649C159.595 82.0673 160 83.493 160 85.1421C160 86.2071 159.848 87.2377 159.544 88.234C159.24 89.1959 158.751 90.175 158.075 91.1713C157.433 92.1676 156.522 93.3013 155.34 94.5724C154.293 95.6718 153.449 96.7024 152.807 97.6643C152.165 98.5919 151.676 99.5023 151.338 100.396C151.034 101.254 150.831 102.165 150.73 103.127C150.696 103.539 150.561 103.883 150.325 104.157C150.089 104.398 149.768 104.518 149.363 104.518ZM149.312 114C148.468 114 147.775 113.742 147.235 113.227C146.728 112.677 146.475 111.99 146.475 111.166C146.475 110.341 146.728 109.671 147.235 109.156C147.775 108.606 148.468 108.331 149.312 108.331C150.156 108.331 150.815 108.606 151.287 109.156C151.794 109.671 152.047 110.341 152.047 111.166C152.047 111.99 151.794 112.677 151.287 113.227C150.815 113.742 150.156 114 149.312 114Z" fill="#1889C0"/>
<path fill-rule="evenodd" clip-rule="evenodd" d="M152.121 36.6769L150 38L147.879 36.6769C148.335 35.9449 149.137 35.5 150 35.5C150.863 35.5 151.665 35.9449 152.121 36.6769ZM150 42.8187C149.333 43.9354 148.532 45.291 147.631 46.8436C144.927 51.4996 141.326 57.9171 137.727 64.9714C134.125 72.0327 130.546 79.6926 127.873 86.8404C125.176 94.0535 123.5 100.492 123.5 105.2C123.5 119.709 135.348 131.5 150 131.5C164.652 131.5 176.5 119.709 176.5 105.2C176.5 100.492 174.824 94.0535 172.127 86.8404C169.454 79.6926 165.875 72.0327 162.273 64.9714C158.674 57.9171 155.073 51.4996 152.369 46.8436C151.468 45.291 150.667 43.9354 150 42.8187ZM150 38C147.879 36.6769 147.879 36.6773 147.878 36.6779L147.856 36.7141L147.791 36.8178C147.735 36.9087 147.652 37.0429 147.544 37.2182C147.329 37.5687 147.014 38.0835 146.614 38.7449C145.815 40.0677 144.674 41.9775 143.307 44.3329C140.573 49.0417 136.924 55.5417 133.273 62.6993C129.625 69.8497 125.954 77.6957 123.19 85.0891C120.449 92.4171 118.5 99.5547 118.5 105.2C118.5 122.503 132.619 136.5 150 136.5C167.381 136.5 181.5 122.503 181.5 105.2C181.5 99.5547 179.551 92.4171 176.81 85.0891C174.046 77.6957 170.375 69.8497 166.727 62.6993C163.076 55.5417 159.427 49.0417 156.693 44.3329C155.326 41.9775 154.185 40.0677 153.386 38.7449C152.986 38.0835 152.671 37.5687 152.456 37.2182C152.348 37.0429 152.265 36.9087 152.209 36.8178L152.144 36.7141L152.122 36.6779C152.121 36.6773 152.121 36.6769 150 38Z" fill="#1889C0"/>
<path fill-rule="evenodd" clip-rule="evenodd" d="M263.143 163.144C265.324 162.174 267 156.277 267 147.857C267 138.626 263.786 127.929 262.5 126C261.214 127.929 258 138.626 258 147.857C258 156.277 259.676 162.174 261.857 163.144V167.143H263.143V163.144Z" fill="#5AC065"/>
<path fill-rule="evenodd" clip-rule="evenodd" d="M251.893 164.894C253.12 164.348 254.062 161.031 254.062 156.295C254.062 151.102 252.254 145.085 251.531 144C250.808 145.085 249 151.102 249 156.295C249 161.031 249.943 164.348 251.17 164.894V167.143H251.893V164.894Z" fill="#5AC065"/>
</svg>
